<svg width="425" height="426" viewBox="0 0 425 426" fill="none" xmlns="http://www.w3.org/2000/svg">
<rect x="0.512573" y="213" width="300" height="300" rx="38" transform="rotate(-45 0.512573 213)" fill="#FF9900"/>
<path d="M143.336 246.208L100.286 246.247L100.22 172.747L139.385 172.711C147.085 172.704 153.177 174.519 157.66 178.155C162.213 181.721 164.492 186.584 164.498 192.744C164.5 195.264 163.908 197.854 162.72 200.515C161.602 203.106 159.924 205.173 157.685 206.715C160.907 208.182 163.464 210.63 165.357 214.058C167.25 217.416 168.198 221.021 168.202 224.871C168.206 229.141 167.159 232.887 165.062 236.108C163.035 239.26 160.132 241.748 156.354 243.571C152.645 245.325 148.306 246.203 143.336 246.208ZM111.91 211.901L111.932 235.946L139.757 235.921C144.867 235.917 148.716 234.863 151.304 232.761C153.962 230.588 155.289 227.542 155.286 223.622C155.284 221.592 154.757 219.703 153.706 217.954C152.724 216.134 151.358 214.666 149.607 213.547C147.856 212.429 145.86 211.871 143.62 211.873L111.91 211.901ZM111.902 202.661L143.822 202.632C146.202 202.63 148.161 201.789 149.7 200.107C151.238 198.426 152.006 196.29 152.004 193.7C151.997 186.35 146.989 182.68 136.979 182.689L111.884 182.711L111.902 202.661ZM215.982 245.933C210.312 245.938 204.991 244.998 200.019 243.112C195.118 241.226 190.775 238.605 186.992 235.249C183.279 231.822 180.336 227.905 178.162 223.497C176.058 219.019 175.003 214.259 174.999 209.219C174.994 204.179 176.04 199.454 178.136 195.042C180.302 190.56 183.239 186.637 186.946 183.274C190.722 179.84 195.06 177.176 199.958 175.282C204.927 173.388 210.246 172.438 215.916 172.433C221.586 172.428 226.872 173.368 231.773 175.254C236.745 177.139 241.087 179.795 244.8 183.222C248.584 186.578 251.527 190.496 253.631 194.974C255.805 199.382 256.894 204.106 256.899 209.146C256.903 214.186 255.823 218.947 253.657 223.429C251.561 227.841 248.624 231.763 244.847 235.197C241.14 238.56 236.802 241.189 231.834 243.084C226.936 244.978 221.652 245.928 215.982 245.933ZM187.179 209.209C187.183 214.109 188.517 218.447 191.18 222.225C193.914 226.003 197.452 228.974 201.793 231.14C206.135 233.307 210.861 234.387 215.971 234.383C219.751 234.379 223.321 233.746 226.68 232.483C230.109 231.22 233.152 229.467 235.81 227.225C238.538 224.912 240.67 222.216 242.208 219.134C243.745 216.053 244.512 212.692 244.509 209.052C244.504 204.012 243.17 199.603 240.507 195.826C237.913 191.978 234.446 188.971 230.104 186.805C225.762 184.639 221.036 183.558 215.926 183.563C210.676 183.567 205.882 184.657 201.544 186.831C197.206 189.005 193.708 192.018 191.052 195.87C188.465 199.722 187.174 204.169 187.179 209.209ZM263.403 246.1L306.699 168.361L350.238 246.022L336.588 246.035L306.72 192.721L277.053 246.088L263.403 246.1ZM306.768 246.061C305.158 246.063 303.758 245.469 302.567 244.28C301.376 243.091 300.779 241.692 300.778 240.082C300.776 238.402 301.37 237.001 302.559 235.88C303.748 234.689 305.148 234.093 306.758 234.091C308.368 234.09 309.768 234.684 310.959 235.873C312.15 236.991 312.746 238.391 312.748 240.071C312.749 241.681 312.156 243.081 310.967 244.273C309.778 245.464 308.378 246.06 306.768 246.061Z" fill="black"/>
</svg>
