<svg width="2014" height="495" viewBox="0 0 2014 495" fill="none" xmlns="http://www.w3.org/2000/svg">
<rect y="247.487" width="350" height="350" rx="20" transform="rotate(-45 0 247.487)" fill="#FF9900"/>
<rect x="17.4874" y="247.297" width="325" height="325" rx="20" transform="rotate(-45 17.4874 247.297)" fill="black"/>
<rect x="42.4874" y="247.548" width="290" height="290" transform="rotate(-45 42.4874 247.548)" fill="#FF9900"/>
<path d="M170.823 280.695L127.773 280.734L127.707 207.234L166.872 207.199C174.572 207.192 180.664 209.006 185.147 212.642C189.7 216.208 191.98 221.071 191.985 227.231C191.988 229.751 191.395 232.342 190.207 235.003C189.09 237.594 187.412 239.66 185.173 241.202C188.394 242.669 190.951 245.117 192.845 248.545C194.738 251.904 195.686 255.508 195.689 259.358C195.693 263.628 194.646 267.374 192.549 270.596C190.522 273.748 187.619 276.235 183.841 278.059C180.133 279.812 175.793 280.691 170.823 280.695ZM139.398 246.388L139.419 270.433L167.244 270.408C172.354 270.404 176.203 269.35 178.791 267.248C181.449 265.076 182.777 262.029 182.773 258.109C182.771 256.079 182.245 254.19 181.193 252.441C180.211 250.622 178.845 249.153 177.094 248.035C175.343 246.916 173.348 246.358 171.108 246.36L139.398 246.388ZM139.389 237.148L171.309 237.12C173.689 237.118 175.648 236.276 177.187 234.594C178.725 232.913 179.494 230.777 179.491 228.187C179.485 220.837 174.476 217.167 164.466 217.176L139.371 217.198L139.389 237.148ZM243.469 280.42C237.799 280.425 232.478 279.485 227.507 277.599C222.605 275.714 218.263 273.093 214.48 269.736C210.766 266.309 207.823 262.392 205.649 257.984C203.545 253.506 202.491 248.747 202.486 243.707C202.482 238.667 203.527 233.941 205.623 229.529C207.789 225.047 210.726 221.124 214.433 217.761C218.21 214.328 222.547 211.664 227.446 209.769C232.414 207.875 237.733 206.925 243.403 206.92C249.073 206.915 254.359 207.855 259.261 209.741C264.232 211.626 268.575 214.282 272.288 217.709C276.071 221.066 279.014 224.983 281.118 229.461C283.292 233.869 284.382 238.593 284.386 243.633C284.391 248.673 283.31 253.434 281.144 257.916C279.048 262.328 276.111 266.251 272.335 269.684C268.628 273.047 264.29 275.676 259.322 277.571C254.423 279.465 249.139 280.415 243.469 280.42ZM214.666 243.696C214.671 248.596 216.004 252.935 218.668 256.712C221.401 260.49 224.939 263.462 229.281 265.628C233.623 267.794 238.349 268.875 243.459 268.87C247.239 268.867 250.808 268.233 254.167 266.97C257.596 265.707 260.639 263.955 263.297 261.712C266.025 259.4 268.158 256.703 269.695 253.621C271.232 250.54 271.999 247.179 271.996 243.539C271.992 238.499 270.658 234.091 267.994 230.313C265.401 226.465 261.933 223.458 257.591 221.292C253.249 219.126 248.523 218.045 243.413 218.05C238.163 218.055 233.369 219.144 229.031 221.318C224.693 223.492 221.196 226.505 218.539 230.357C215.953 234.21 214.662 238.656 214.666 243.696ZM290.891 280.587L334.186 202.849L377.726 280.51L364.076 280.522L334.208 227.209L304.541 280.575L290.891 280.587ZM334.256 280.549C332.646 280.55 331.245 279.956 330.054 278.767C328.863 277.578 328.267 276.179 328.265 274.569C328.264 272.889 328.858 271.488 330.047 270.367C331.236 269.176 332.635 268.58 334.245 268.579C335.855 268.577 337.256 269.171 338.447 270.36C339.638 271.479 340.234 272.878 340.235 274.558C340.237 276.168 339.643 277.569 338.454 278.76C337.265 279.951 335.866 280.547 334.256 280.549Z" fill="black"/>
<line x1="575" y1="304.5" x2="2014" y2="304.5" stroke="black" stroke-width="5"/>
<path d="M581.865 130V62.4609H605.012C612.651 62.4609 618.464 63.9917 622.454 67.0532C626.443 70.1147 628.438 74.6761 628.438 80.7373C628.438 83.8298 627.603 86.613 625.933 89.0869C624.263 91.5609 621.82 93.4782 618.604 94.8389C622.253 95.8285 625.067 97.6994 627.046 100.452C629.056 103.173 630.061 106.451 630.061 110.286C630.061 116.625 628.02 121.496 623.938 124.897C619.887 128.299 614.073 130 606.497 130H581.865ZM593.601 99.5239V120.63H606.636C610.316 120.63 613.192 119.718 615.264 117.893C617.336 116.069 618.372 113.533 618.372 110.286C618.372 103.266 614.784 99.6785 607.61 99.5239H593.601ZM593.601 90.896H605.105C608.754 90.896 611.599 90.0765 613.64 88.4375C615.712 86.7676 616.748 84.4173 616.748 81.3867C616.748 78.0469 615.789 75.6348 613.872 74.1504C611.986 72.666 609.032 71.9238 605.012 71.9238H593.601V90.896ZM693.333 108.013C692.652 115.218 689.993 120.846 685.354 124.897C680.715 128.918 674.546 130.928 666.846 130.928C661.465 130.928 656.718 129.66 652.605 127.124C648.523 124.557 645.369 120.924 643.142 116.223C640.916 111.523 639.756 106.064 639.663 99.8486V93.54C639.663 87.1696 640.792 81.5568 643.049 76.7017C645.307 71.8465 648.538 68.1047 652.744 65.4761C656.981 62.8475 661.867 61.5332 667.402 61.5332C674.855 61.5332 680.854 63.5588 685.4 67.6099C689.946 71.661 692.59 77.382 693.333 84.7729H681.643C681.086 79.9178 679.664 76.4233 677.375 74.2896C675.118 72.1248 671.794 71.0425 667.402 71.0425C662.3 71.0425 658.372 72.9134 655.62 76.6553C652.899 80.3662 651.507 85.8244 651.445 93.0298V99.0137C651.445 106.312 652.744 111.878 655.342 115.713C657.97 119.548 661.805 121.465 666.846 121.465C671.453 121.465 674.917 120.429 677.236 118.357C679.556 116.285 681.025 112.837 681.643 108.013H693.333ZM743.337 99.8486H715.598V120.63H748.022V130H703.862V62.4609H747.698V71.9238H715.598V90.5713H743.337V99.8486ZM769.314 104.905V130H757.578V62.4609H783.416C790.961 62.4609 796.945 64.4246 801.367 68.3521C805.82 72.2795 808.047 77.4748 808.047 83.938C808.047 90.5558 805.867 95.7048 801.506 99.3848C797.177 103.065 791.1 104.905 783.276 104.905H769.314ZM769.314 95.4883H783.416C787.59 95.4883 790.776 94.5142 792.971 92.5659C795.167 90.5868 796.265 87.7417 796.265 84.0308C796.265 80.3817 795.151 77.4748 792.925 75.3101C790.698 73.1144 787.637 71.9857 783.74 71.9238H769.314V95.4883ZM872.246 97.9932C872.246 104.611 871.102 110.425 868.813 115.435C866.525 120.413 863.247 124.248 858.979 126.938C854.743 129.598 849.857 130.928 844.321 130.928C838.848 130.928 833.962 129.598 829.663 126.938C825.396 124.248 822.087 120.429 819.736 115.481C817.417 110.533 816.242 104.827 816.211 98.3643V94.5605C816.211 87.9736 817.371 82.1598 819.69 77.1191C822.04 72.0785 825.334 68.2284 829.57 65.5688C833.838 62.8784 838.724 61.5332 844.229 61.5332C849.733 61.5332 854.604 62.863 858.84 65.5225C863.108 68.151 866.401 71.9548 868.721 76.9336C871.04 81.8815 872.215 87.6489 872.246 94.2358V97.9932ZM860.51 94.4678C860.51 86.984 859.088 81.2476 856.243 77.2583C853.429 73.269 849.424 71.2744 844.229 71.2744C839.157 71.2744 835.183 73.269 832.307 77.2583C829.462 81.2166 828.009 86.8294 827.947 94.0967V97.9932C827.947 105.415 829.385 111.152 832.261 115.203C835.168 119.254 839.188 121.279 844.321 121.279C849.517 121.279 853.506 119.3 856.289 115.342C859.103 111.383 860.51 105.601 860.51 97.9932V94.4678ZM935.471 108.013C934.791 115.218 932.131 120.846 927.493 124.897C922.854 128.918 916.685 130.928 908.984 130.928C903.604 130.928 898.857 129.66 894.744 127.124C890.662 124.557 887.507 120.924 885.281 116.223C883.054 111.523 881.895 106.064 881.802 99.8486V93.54C881.802 87.1696 882.931 81.5568 885.188 76.7017C887.445 71.8465 890.677 68.1047 894.883 65.4761C899.119 62.8475 904.006 61.5332 909.541 61.5332C916.994 61.5332 922.993 63.5588 927.539 67.6099C932.085 71.661 934.729 77.382 935.471 84.7729H923.782C923.225 79.9178 921.803 76.4233 919.514 74.2896C917.257 72.1248 913.932 71.0425 909.541 71.0425C904.438 71.0425 900.511 72.9134 897.759 76.6553C895.037 80.3662 893.646 85.8244 893.584 93.0298V99.0137C893.584 106.312 894.883 111.878 897.48 115.713C900.109 119.548 903.944 121.465 908.984 121.465C913.592 121.465 917.056 120.429 919.375 118.357C921.694 116.285 923.163 112.837 923.782 108.013H935.471ZM997.537 108.013C996.856 115.218 994.197 120.846 989.558 124.897C984.919 128.918 978.75 130.928 971.05 130.928C965.669 130.928 960.922 129.66 956.809 127.124C952.727 124.557 949.573 120.924 947.346 116.223C945.12 111.523 943.96 106.064 943.867 99.8486V93.54C943.867 87.1696 944.996 81.5568 947.253 76.7017C949.511 71.8465 952.743 68.1047 956.948 65.4761C961.185 62.8475 966.071 61.5332 971.606 61.5332C979.059 61.5332 985.059 63.5588 989.604 67.6099C994.15 71.661 996.794 77.382 997.537 84.7729H985.847C985.291 79.9178 983.868 76.4233 981.58 74.2896C979.322 72.1248 975.998 71.0425 971.606 71.0425C966.504 71.0425 962.576 72.9134 959.824 76.6553C957.103 80.3662 955.711 85.8244 955.649 93.0298V99.0137C955.649 106.312 956.948 111.878 959.546 115.713C962.174 119.548 966.009 121.465 971.05 121.465C975.658 121.465 979.121 120.429 981.44 118.357C983.76 116.285 985.229 112.837 985.847 108.013H997.537ZM1049.44 62.4609H1061.18V130H1049.44V81.897L1019.8 130H1008.07V62.4609H1019.8V110.61L1049.44 62.4609ZM1116.61 62.4609H1128.35V130H1116.61V81.897L1086.97 130H1075.23V62.4609H1086.97V110.61L1116.61 62.4609ZM1116.98 45.2515C1116.98 49.1479 1115.62 52.3022 1112.9 54.7144C1110.18 57.1265 1106.55 58.3325 1102 58.3325C1097.45 58.3325 1093.82 57.1265 1091.1 54.7144C1088.38 52.3022 1087.02 49.1479 1087.02 45.2515H1095.46C1095.46 47.2925 1096.03 48.8851 1097.18 50.0293C1098.35 51.1426 1099.96 51.6992 1102 51.6992C1104.04 51.6992 1105.63 51.1426 1106.78 50.0293C1107.92 48.8851 1108.49 47.2925 1108.49 45.2515H1116.98ZM1193.94 108.013C1193.26 115.218 1190.6 120.846 1185.96 124.897C1181.32 128.918 1175.15 130.928 1167.45 130.928C1162.07 130.928 1157.32 129.66 1153.21 127.124C1149.13 124.557 1145.97 120.924 1143.75 116.223C1141.52 111.523 1140.36 106.064 1140.27 99.8486V93.54C1140.27 87.1696 1141.4 81.5568 1143.65 76.7017C1145.91 71.8465 1149.14 68.1047 1153.35 65.4761C1157.59 62.8475 1162.47 61.5332 1168.01 61.5332C1175.46 61.5332 1181.46 63.5588 1186.01 67.6099C1190.55 71.661 1193.2 77.382 1193.94 84.7729H1182.25C1181.69 79.9178 1180.27 76.4233 1177.98 74.2896C1175.72 72.1248 1172.4 71.0425 1168.01 71.0425C1162.91 71.0425 1158.98 72.9134 1156.23 76.6553C1153.5 80.3662 1152.11 85.8244 1152.05 93.0298V99.0137C1152.05 106.312 1153.35 111.878 1155.95 115.713C1158.58 119.548 1162.41 121.465 1167.45 121.465C1172.06 121.465 1175.52 120.429 1177.84 118.357C1180.16 116.285 1181.63 112.837 1182.25 108.013H1193.94ZM1224.46 101.055H1216.48V130H1204.79V62.4609H1216.48V90.8496H1222.93L1242.78 62.4609H1257.16L1233.97 94.7925L1259.2 130H1245.1L1224.46 101.055ZM1318.12 97.9932C1318.12 104.611 1316.97 110.425 1314.68 115.435C1312.39 120.413 1309.12 124.248 1304.85 126.938C1300.61 129.598 1295.73 130.928 1290.19 130.928C1284.72 130.928 1279.83 129.598 1275.53 126.938C1271.26 124.248 1267.96 120.429 1265.61 115.481C1263.29 110.533 1262.11 104.827 1262.08 98.3643V94.5605C1262.08 87.9736 1263.24 82.1598 1265.56 77.1191C1267.91 72.0785 1271.2 68.2284 1275.44 65.5688C1279.71 62.8784 1284.59 61.5332 1290.1 61.5332C1295.6 61.5332 1300.47 62.863 1304.71 65.5225C1308.98 68.151 1312.27 71.9548 1314.59 76.9336C1316.91 81.8815 1318.08 87.6489 1318.12 94.2358V97.9932ZM1306.38 94.4678C1306.38 86.984 1304.96 81.2476 1302.11 77.2583C1299.3 73.269 1295.29 71.2744 1290.1 71.2744C1285.03 71.2744 1281.05 73.269 1278.18 77.2583C1275.33 81.2166 1273.88 86.8294 1273.82 94.0967V97.9932C1273.82 105.415 1275.25 111.152 1278.13 115.203C1281.04 119.254 1285.06 121.279 1290.19 121.279C1295.39 121.279 1299.38 119.3 1302.16 115.342C1304.97 111.383 1306.38 105.601 1306.38 97.9932V94.4678ZM1369.28 99.8486H1341.54V120.63H1373.96V130H1329.8V62.4609H1373.64V71.9238H1341.54V90.5713H1369.28V99.8486ZM635.767 208.993C635.767 215.611 634.622 221.425 632.334 226.435C630.046 231.413 626.768 235.248 622.5 237.938C618.263 240.598 613.377 241.928 607.842 241.928C602.368 241.928 597.482 240.598 593.184 237.938C588.916 235.248 585.607 231.429 583.257 226.481C580.938 221.533 579.762 215.827 579.731 209.364V205.561C579.731 198.974 580.891 193.16 583.21 188.119C585.561 183.078 588.854 179.228 593.091 176.569C597.358 173.878 602.244 172.533 607.749 172.533C613.254 172.533 618.124 173.863 622.361 176.522C626.628 179.151 629.922 182.955 632.241 187.934C634.561 192.882 635.736 198.649 635.767 205.236V208.993ZM624.031 205.468C624.031 197.984 622.608 192.248 619.763 188.258C616.949 184.269 612.944 182.274 607.749 182.274C602.677 182.274 598.704 184.269 595.828 188.258C592.983 192.217 591.529 197.829 591.467 205.097V208.993C591.467 216.415 592.905 222.152 595.781 226.203C598.688 230.254 602.708 232.279 607.842 232.279C613.037 232.279 617.026 230.3 619.81 226.342C622.624 222.383 624.031 216.601 624.031 208.993V205.468ZM690.132 182.924H659.006V199.298H672.83C677.778 199.298 682.091 200.149 685.771 201.85C689.451 203.55 692.25 205.963 694.167 209.086C696.085 212.209 697.043 215.827 697.043 219.94C697.043 226.249 694.894 231.321 690.596 235.155C686.328 238.99 680.499 240.938 673.108 241H647.271V173.461H690.132V182.924ZM659.006 208.715V231.63H672.783C676.742 231.63 679.819 230.563 682.014 228.429C684.241 226.264 685.354 223.404 685.354 219.848C685.354 216.446 684.272 213.756 682.107 211.776C679.942 209.797 676.943 208.777 673.108 208.715H659.006ZM719.17 173.461V231.63H739.766V173.461H751.455V231.63H771.912V173.461H783.601V232.001H791.487L790.559 257.235H780.261V241H707.388V173.461H719.17ZM841.399 210.849H813.66V231.63H846.084V241H801.924V173.461H845.759V182.924H813.66V201.571H841.399V210.849ZM907.175 219.013C906.495 226.218 903.835 231.846 899.197 235.897C894.558 239.918 888.389 241.928 880.688 241.928C875.308 241.928 870.561 240.66 866.448 238.124C862.366 235.557 859.211 231.924 856.985 227.223C854.758 222.523 853.599 217.064 853.506 210.849V204.54C853.506 198.17 854.635 192.557 856.892 187.702C859.15 182.847 862.381 179.105 866.587 176.476C870.824 173.847 875.71 172.533 881.245 172.533C888.698 172.533 894.697 174.559 899.243 178.61C903.789 182.661 906.433 188.382 907.175 195.773H895.486C894.929 190.918 893.507 187.423 891.218 185.29C888.961 183.125 885.636 182.042 881.245 182.042C876.143 182.042 872.215 183.913 869.463 187.655C866.742 191.366 865.35 196.824 865.288 204.03V210.014C865.288 217.312 866.587 222.878 869.185 226.713C871.813 230.548 875.648 232.465 880.688 232.465C885.296 232.465 888.76 231.429 891.079 229.357C893.398 227.285 894.867 223.837 895.486 219.013H907.175ZM965.112 182.924H944.053V241H932.41V182.924H911.536V173.461H965.112V182.924ZM974.019 241V173.461H997.166C1004.8 173.461 1010.62 174.992 1014.61 178.053C1018.6 181.115 1020.59 185.676 1020.59 191.737C1020.59 194.83 1019.76 197.613 1018.09 200.087C1016.42 202.561 1013.97 204.478 1010.76 205.839C1014.41 206.828 1017.22 208.699 1019.2 211.452C1021.21 214.173 1022.21 217.451 1022.21 221.286C1022.21 227.625 1020.17 232.496 1016.09 235.897C1012.04 239.299 1006.23 241 998.65 241H974.019ZM985.754 210.524V231.63H998.789C1002.47 231.63 1005.35 230.718 1007.42 228.893C1009.49 227.069 1010.52 224.533 1010.52 221.286C1010.52 214.266 1006.94 210.679 999.763 210.524H985.754ZM985.754 201.896H997.258C1000.91 201.896 1003.75 201.076 1005.79 199.438C1007.87 197.768 1008.9 195.417 1008.9 192.387C1008.9 189.047 1007.94 186.635 1006.03 185.15C1004.14 183.666 1001.19 182.924 997.166 182.924H985.754V201.896ZM1087.85 208.993C1087.85 215.611 1086.71 221.425 1084.42 226.435C1082.13 231.413 1078.85 235.248 1074.58 237.938C1070.35 240.598 1065.46 241.928 1059.93 241.928C1054.45 241.928 1049.57 240.598 1045.27 237.938C1041 235.248 1037.69 231.429 1035.34 226.481C1033.02 221.533 1031.85 215.827 1031.82 209.364V205.561C1031.82 198.974 1032.98 193.16 1035.3 188.119C1037.65 183.078 1040.94 179.228 1045.18 176.569C1049.44 173.878 1054.33 172.533 1059.83 172.533C1065.34 172.533 1070.21 173.863 1074.45 176.522C1078.71 179.151 1082.01 182.955 1084.33 187.934C1086.65 192.882 1087.82 198.649 1087.85 205.236V208.993ZM1076.12 205.468C1076.12 197.984 1074.69 192.248 1071.85 188.258C1069.03 184.269 1065.03 182.274 1059.83 182.274C1054.76 182.274 1050.79 184.269 1047.91 188.258C1045.07 192.217 1043.61 197.829 1043.55 205.097V208.993C1043.55 216.415 1044.99 222.152 1047.87 226.203C1050.77 230.254 1054.79 232.279 1059.93 232.279C1065.12 232.279 1069.11 230.3 1071.89 226.342C1074.71 222.383 1076.12 216.601 1076.12 208.993V205.468ZM1161 225.275H1134.84L1129.37 241H1117.17L1142.68 173.461H1153.21L1178.77 241H1166.52L1161 225.275ZM1138.13 215.812H1157.71L1147.92 187.794L1138.13 215.812ZM1186.47 241V173.461H1209.62C1217.26 173.461 1223.07 174.992 1227.06 178.053C1231.05 181.115 1233.04 185.676 1233.04 191.737C1233.04 194.83 1232.21 197.613 1230.54 200.087C1228.87 202.561 1226.42 204.478 1223.21 205.839C1226.86 206.828 1229.67 208.699 1231.65 211.452C1233.66 214.173 1234.67 217.451 1234.67 221.286C1234.67 227.625 1232.62 232.496 1228.54 235.897C1224.49 239.299 1218.68 241 1211.1 241H1186.47ZM1198.21 210.524V231.63H1211.24C1214.92 231.63 1217.8 230.718 1219.87 228.893C1221.94 227.069 1222.98 224.533 1222.98 221.286C1222.98 214.266 1219.39 210.679 1212.21 210.524H1198.21ZM1198.21 201.896H1209.71C1213.36 201.896 1216.2 201.076 1218.24 199.438C1220.32 197.768 1221.35 195.417 1221.35 192.387C1221.35 189.047 1220.39 186.635 1218.48 185.15C1216.59 183.666 1213.64 182.924 1209.62 182.924H1198.21V201.896ZM1293.9 182.924H1272.84V241H1261.2V182.924H1240.32V173.461H1293.9V182.924ZM1355.41 208.993C1355.41 215.611 1354.27 221.425 1351.98 226.435C1349.69 231.413 1346.41 235.248 1342.14 237.938C1337.91 240.598 1333.02 241.928 1327.49 241.928C1322.01 241.928 1317.13 240.598 1312.83 237.938C1308.56 235.248 1305.25 231.429 1302.9 226.481C1300.58 221.533 1299.41 215.827 1299.38 209.364V205.561C1299.38 198.974 1300.53 193.16 1302.85 188.119C1305.2 183.078 1308.5 179.228 1312.73 176.569C1317 173.878 1321.89 172.533 1327.39 172.533C1332.9 172.533 1337.77 173.863 1342 176.522C1346.27 179.151 1349.57 182.955 1351.88 187.934C1354.2 192.882 1355.38 198.649 1355.41 205.236V208.993ZM1343.67 205.468C1343.67 197.984 1342.25 192.248 1339.41 188.258C1336.59 184.269 1332.59 182.274 1327.39 182.274C1322.32 182.274 1318.35 184.269 1315.47 188.258C1312.63 192.217 1311.17 197.829 1311.11 205.097V208.993C1311.11 216.415 1312.55 222.152 1315.42 226.203C1318.33 230.254 1322.35 232.279 1327.49 232.279C1332.68 232.279 1336.67 230.3 1339.45 226.342C1342.27 222.383 1343.67 216.601 1343.67 208.993V205.468ZM1382.31 173.461L1401.8 225.229L1421.23 173.461H1436.4V241H1424.71V218.734L1425.87 188.954L1405.93 241H1397.53L1377.63 189L1378.79 218.734V241H1367.1V173.461H1382.31ZM1504.22 208.993C1504.22 215.611 1503.07 221.425 1500.79 226.435C1498.5 231.413 1495.22 235.248 1490.95 237.938C1486.72 240.598 1481.83 241.928 1476.29 241.928C1470.82 241.928 1465.93 240.598 1461.64 237.938C1457.37 235.248 1454.06 231.429 1451.71 226.481C1449.39 221.533 1448.21 215.827 1448.18 209.364V205.561C1448.18 198.974 1449.34 193.16 1451.66 188.119C1454.01 183.078 1457.31 179.228 1461.54 176.569C1465.81 173.878 1470.7 172.533 1476.2 172.533C1481.71 172.533 1486.58 173.863 1490.81 176.522C1495.08 179.151 1498.37 182.955 1500.69 187.934C1503.01 192.882 1504.19 198.649 1504.22 205.236V208.993ZM1492.48 205.468C1492.48 197.984 1491.06 192.248 1488.22 188.258C1485.4 184.269 1481.4 182.274 1476.2 182.274C1471.13 182.274 1467.16 184.269 1464.28 188.258C1461.43 192.217 1459.98 197.829 1459.92 205.097V208.993C1459.92 216.415 1461.36 222.152 1464.23 226.203C1467.14 230.254 1471.16 232.279 1476.29 232.279C1481.49 232.279 1485.48 230.3 1488.26 226.342C1491.08 222.383 1492.48 216.601 1492.48 208.993V205.468ZM1558.58 182.924H1527.46V199.298H1541.28C1546.23 199.298 1550.54 200.149 1554.22 201.85C1557.9 203.55 1560.7 205.963 1562.62 209.086C1564.54 212.209 1565.5 215.827 1565.5 219.94C1565.5 226.249 1563.35 231.321 1559.05 235.155C1554.78 238.99 1548.95 240.938 1541.56 241H1515.72V173.461H1558.58V182.924ZM1527.46 208.715V231.63H1541.24C1545.19 231.63 1548.27 230.563 1550.47 228.429C1552.69 226.264 1553.81 223.404 1553.81 219.848C1553.81 216.446 1552.72 213.756 1550.56 211.776C1548.39 209.797 1545.39 208.777 1541.56 208.715H1527.46ZM1617.03 173.461H1628.77V241H1617.03V192.897L1587.39 241H1575.65V173.461H1587.39V221.61L1617.03 173.461ZM1696.77 173.461V241H1685.08V182.924H1664.39L1663.19 209.04C1662.72 217.204 1661.72 223.543 1660.17 228.058C1658.66 232.542 1656.44 235.82 1653.54 237.892C1650.63 239.964 1646.73 241 1641.85 241H1638.88V231.63L1640.73 231.491C1643.43 231.243 1645.5 230.3 1646.95 228.661C1648.44 227.022 1649.55 224.548 1650.29 221.239C1651.06 217.899 1651.6 212.998 1651.91 206.535L1653.21 173.461H1696.77ZM1752.29 173.461H1764.03V241H1752.29V192.897L1722.65 241H1710.92V173.461H1722.65V221.61L1752.29 173.461ZM1829.62 219.013C1828.94 226.218 1826.28 231.846 1821.64 235.897C1817 239.918 1810.83 241.928 1803.13 241.928C1797.75 241.928 1793.01 240.66 1788.89 238.124C1784.81 235.557 1781.66 231.924 1779.43 227.223C1777.2 222.523 1776.04 217.064 1775.95 210.849V204.54C1775.95 198.17 1777.08 192.557 1779.34 187.702C1781.6 182.847 1784.83 179.105 1789.03 176.476C1793.27 173.847 1798.16 172.533 1803.69 172.533C1811.14 172.533 1817.14 174.559 1821.69 178.61C1826.24 182.661 1828.88 188.382 1829.62 195.773H1817.93C1817.38 190.918 1815.95 187.423 1813.66 185.29C1811.41 183.125 1808.08 182.042 1803.69 182.042C1798.59 182.042 1794.66 183.913 1791.91 187.655C1789.19 191.366 1787.8 196.824 1787.73 204.03V210.014C1787.73 217.312 1789.03 222.878 1791.63 226.713C1794.26 230.548 1798.09 232.465 1803.13 232.465C1807.74 232.465 1811.21 231.429 1813.53 229.357C1815.84 227.285 1817.31 223.837 1817.93 219.013H1829.62ZM1887.56 182.924H1866.5V241H1854.86V182.924H1833.98V173.461H1887.56V182.924ZM1949.07 208.993C1949.07 215.611 1947.92 221.425 1945.63 226.435C1943.35 231.413 1940.07 235.248 1935.8 237.938C1931.56 240.598 1926.68 241.928 1921.14 241.928C1915.67 241.928 1910.78 240.598 1906.48 237.938C1902.22 235.248 1898.91 231.429 1896.56 226.481C1894.24 221.533 1893.06 215.827 1893.03 209.364V205.561C1893.03 198.974 1894.19 193.16 1896.51 188.119C1898.86 183.078 1902.15 179.228 1906.39 176.569C1910.66 173.878 1915.55 172.533 1921.05 172.533C1926.55 172.533 1931.42 173.863 1935.66 176.522C1939.93 179.151 1943.22 182.955 1945.54 187.934C1947.86 192.882 1949.04 198.649 1949.07 205.236V208.993ZM1937.33 205.468C1937.33 197.984 1935.91 192.248 1933.06 188.258C1930.25 184.269 1926.25 182.274 1921.05 182.274C1915.98 182.274 1912 184.269 1909.13 188.258C1906.28 192.217 1904.83 197.829 1904.77 205.097V208.993C1904.77 216.415 1906.21 222.152 1909.08 226.203C1911.99 230.254 1916.01 232.279 1921.14 232.279C1926.34 232.279 1930.33 230.3 1933.11 226.342C1935.92 222.383 1937.33 216.601 1937.33 208.993V205.468ZM1960.76 241V173.461H1983.9C1991.54 173.461 1997.36 174.992 2001.35 178.053C2005.33 181.115 2007.33 185.676 2007.33 191.737C2007.33 194.83 2006.49 197.613 2004.82 200.087C2003.15 202.561 2000.71 204.478 1997.5 205.839C2001.14 206.828 2003.96 208.699 2005.94 211.452C2007.95 214.173 2008.95 217.451 2008.95 221.286C2008.95 227.625 2006.91 232.496 2002.83 235.897C1998.78 239.299 1992.96 241 1985.39 241H1960.76ZM1972.49 210.524V231.63H1985.53C1989.21 231.63 1992.08 230.718 1994.16 228.893C1996.23 227.069 1997.26 224.533 1997.26 221.286C1997.26 214.266 1993.68 210.679 1986.5 210.524H1972.49ZM1972.49 201.896H1984C1987.65 201.896 1990.49 201.076 1992.53 199.438C1994.6 197.768 1995.64 195.417 1995.64 192.387C1995.64 189.047 1994.68 186.635 1992.76 185.15C1990.88 183.666 1987.92 182.924 1983.9 182.924H1972.49V201.896Z" fill="#FF9900"/>
<path d="M603.885 382L599.327 370.287H584.328L579.823 382H575L589.787 343.999H594.08L608.814 382H603.885ZM593.656 354.599C593.55 354.316 593.373 353.804 593.126 353.062C592.879 352.32 592.631 351.56 592.384 350.783C592.172 349.97 591.995 349.352 591.854 348.928C591.607 350.023 591.324 351.101 591.006 352.161C590.688 353.186 590.423 353.998 590.211 354.599L585.918 366.047H597.896L593.656 354.599ZM647.063 344.158C651.797 344.158 655.366 344.865 657.769 346.278C660.207 347.656 661.426 350.076 661.426 353.539C661.426 355.765 660.807 357.62 659.571 359.104C658.334 360.553 656.55 361.489 654.218 361.913V362.178C655.808 362.425 657.239 362.885 658.511 363.556C659.818 364.227 660.843 365.181 661.585 366.418C662.327 367.655 662.698 369.262 662.698 371.241C662.698 374.668 661.514 377.318 659.147 379.191C656.815 381.064 653.617 382 649.554 382H636.251V344.158H647.063ZM648.017 360.27C651.267 360.27 653.493 359.758 654.695 358.733C655.896 357.673 656.497 356.118 656.497 354.069C656.497 351.984 655.755 350.5 654.271 349.617C652.822 348.698 650.49 348.239 647.275 348.239H641.021V360.27H648.017ZM641.021 364.245V377.972H648.653C652.009 377.972 654.341 377.318 655.649 376.011C656.956 374.704 657.61 372.99 657.61 370.87C657.61 368.891 656.921 367.301 655.543 366.1C654.2 364.863 651.78 364.245 648.282 364.245H641.021ZM704.959 382H700.189V348.345H688.37V344.158H716.725V348.345H704.959V382ZM776.675 363.026C776.675 366.948 776.004 370.375 774.661 373.308C773.354 376.205 771.411 378.467 768.831 380.092C766.252 381.717 763.054 382.53 759.238 382.53C755.316 382.53 752.048 381.717 749.433 380.092C746.854 378.467 744.928 376.188 743.656 373.255C742.384 370.322 741.748 366.895 741.748 362.973C741.748 359.086 742.384 355.694 743.656 352.797C744.928 349.9 746.854 347.638 749.433 346.013C752.048 344.388 755.334 343.575 759.291 343.575C763.072 343.575 766.252 344.388 768.831 346.013C771.411 347.603 773.354 349.864 774.661 352.797C776.004 355.694 776.675 359.104 776.675 363.026ZM746.783 363.026C746.783 367.796 747.79 371.559 749.804 374.315C751.818 377.036 754.963 378.396 759.238 378.396C763.549 378.396 766.694 377.036 768.672 374.315C770.651 371.559 771.64 367.796 771.64 363.026C771.64 358.256 770.651 354.528 768.672 351.843C766.694 349.122 763.567 347.762 759.291 347.762C755.016 347.762 751.854 349.122 749.804 351.843C747.79 354.528 746.783 358.256 746.783 363.026ZM851.949 382H807.323V344.158H812.093V377.76H827.198V344.158H831.968V377.76H847.126V344.158H851.949V382ZM912.162 382H906.438L889.319 362.814V382H884.549V344.158H889.319V362.496L906.014 344.158H911.42L894.99 362.549L912.162 382ZM971.556 363.026C971.556 366.948 970.885 370.375 969.542 373.308C968.235 376.205 966.291 378.467 963.712 380.092C961.133 381.717 957.935 382.53 954.119 382.53C950.197 382.53 946.929 381.717 944.314 380.092C941.735 378.467 939.809 376.188 938.537 373.255C937.265 370.322 936.629 366.895 936.629 362.973C936.629 359.086 937.265 355.694 938.537 352.797C939.809 349.9 941.735 347.638 944.314 346.013C946.929 344.388 950.215 343.575 954.172 343.575C957.953 343.575 961.133 344.388 963.712 346.013C966.291 347.603 968.235 349.864 969.542 352.797C970.885 355.694 971.556 359.104 971.556 363.026ZM941.664 363.026C941.664 367.796 942.671 371.559 944.685 374.315C946.699 377.036 949.844 378.396 954.119 378.396C958.43 378.396 961.574 377.036 963.553 374.315C965.532 371.559 966.521 367.796 966.521 363.026C966.521 358.256 965.532 354.528 963.553 351.843C961.574 349.122 958.447 347.762 954.172 347.762C949.897 347.762 946.734 349.122 944.685 351.843C942.671 354.528 941.664 358.256 941.664 363.026ZM1028.41 382H1023.64V348.345H1011.66C1011.34 350.96 1010.99 353.716 1010.6 356.613C1010.21 359.475 1009.82 362.213 1009.44 364.828C1009.05 367.443 1008.66 369.669 1008.27 371.506C1007.81 373.873 1007.25 375.887 1006.57 377.548C1005.9 379.209 1005 380.463 1003.87 381.311C1002.78 382.159 1001.33 382.583 999.525 382.583C998.924 382.583 998.306 382.512 997.67 382.371C997.069 382.265 996.539 382.124 996.08 381.947V377.972C996.469 378.149 996.91 378.308 997.405 378.449C997.9 378.555 998.43 378.608 998.995 378.608C1000.06 378.608 1000.89 378.184 1001.49 377.336C1002.12 376.453 1002.62 375.375 1002.97 374.103C1003.32 372.796 1003.62 371.506 1003.87 370.234C1004.15 368.891 1004.49 366.93 1004.88 364.351C1005.3 361.736 1005.74 358.698 1006.2 355.235C1006.7 351.772 1007.19 348.08 1007.69 344.158H1028.41V382ZM1084.7 382L1080.14 370.287H1065.14L1060.63 382H1055.81L1070.6 343.999H1074.89L1089.63 382H1084.7ZM1074.47 354.599C1074.36 354.316 1074.18 353.804 1073.94 353.062C1073.69 352.32 1073.44 351.56 1073.2 350.783C1072.98 349.97 1072.81 349.352 1072.67 348.928C1072.42 350.023 1072.14 351.101 1071.82 352.161C1071.5 353.186 1071.23 353.998 1071.02 354.599L1066.73 366.047H1078.71L1074.47 354.599Z" fill="#FF9900"/>
</svg>
