<svg width="1395" height="496" viewBox="0 0 1395 496" fill="none" xmlns="http://www.w3.org/2000/svg">
<rect x="0.512573" y="248" width="350" height="350" rx="20" transform="rotate(-45 0.512573 248)" fill="#FF9900"/>
<rect x="18" y="247.81" width="325" height="325" rx="20" transform="rotate(-45 18 247.81)" fill="black"/>
<rect x="43" y="248.061" width="290" height="290" transform="rotate(-45 43 248.061)" fill="#FF9900"/>
<path d="M171.336 281.208L128.286 281.246L128.22 207.746L167.385 207.711C175.085 207.704 181.177 209.519 185.66 213.155C190.213 216.721 192.492 221.584 192.498 227.744C192.5 230.264 191.908 232.854 190.72 235.515C189.602 238.106 187.924 240.173 185.685 241.715C188.907 243.182 191.464 245.63 193.357 249.058C195.25 252.416 196.198 256.021 196.202 259.871C196.206 264.141 195.159 267.886 193.062 271.108C191.035 274.26 188.132 276.748 184.354 278.571C180.645 280.324 176.306 281.203 171.336 281.208ZM139.91 246.901L139.932 270.946L167.757 270.921C172.867 270.916 176.716 269.863 179.304 267.761C181.962 265.588 183.289 262.542 183.286 258.622C183.284 256.592 182.757 254.703 181.706 252.954C180.724 251.134 179.358 249.666 177.607 248.547C175.856 247.429 173.86 246.871 171.62 246.873L139.91 246.901ZM139.902 237.661L171.822 237.632C174.202 237.63 176.161 236.788 177.7 235.107C179.238 233.426 180.006 231.29 180.004 228.7C179.997 221.35 174.989 217.68 164.979 217.689L139.884 217.711L139.902 237.661ZM243.982 280.933C238.312 280.938 232.991 279.998 228.019 278.112C223.118 276.226 218.775 273.605 214.992 270.249C211.279 266.822 208.336 262.905 206.162 258.497C204.058 254.018 203.003 249.259 202.999 244.219C202.994 239.179 204.04 234.453 206.136 230.042C208.302 225.56 211.239 221.637 214.946 218.274C218.722 214.84 223.06 212.176 227.958 210.282C232.927 208.388 238.246 207.438 243.916 207.433C249.586 207.428 254.872 208.368 259.773 210.253C264.745 212.139 269.087 214.795 272.8 218.222C276.584 221.578 279.527 225.496 281.631 229.974C283.805 234.382 284.894 239.106 284.899 244.146C284.903 249.186 283.823 253.947 281.657 258.429C279.561 262.841 276.624 266.763 272.847 270.197C269.14 273.56 264.802 276.189 259.834 278.083C254.936 279.978 249.652 280.928 243.982 280.933ZM215.179 244.208C215.183 249.108 216.517 253.447 219.18 257.225C221.914 261.002 225.452 263.974 229.793 266.14C234.135 268.306 238.861 269.387 243.971 269.383C247.751 269.379 251.321 268.746 254.68 267.483C258.109 266.22 261.152 264.467 263.81 262.225C266.538 259.912 268.67 257.216 270.208 254.134C271.745 251.053 272.512 247.692 272.509 244.052C272.504 239.012 271.17 234.603 268.507 230.826C265.913 226.978 262.446 223.971 258.104 221.805C253.762 219.639 249.036 218.558 243.926 218.563C238.676 218.567 233.882 219.657 229.544 221.831C225.206 224.004 221.708 227.018 219.052 230.87C216.465 234.722 215.174 239.168 215.179 244.208ZM291.403 281.1L334.699 203.361L378.238 281.022L364.588 281.034L334.72 227.721L305.053 281.088L291.403 281.1ZM334.768 281.061C333.158 281.063 331.758 280.469 330.567 279.28C329.376 278.091 328.779 276.692 328.778 275.082C328.776 273.402 329.37 272.001 330.559 270.88C331.748 269.689 333.148 269.093 334.758 269.091C336.368 269.09 337.768 269.684 338.959 270.872C340.15 271.991 340.746 273.391 340.748 275.071C340.749 276.681 340.156 278.081 338.967 279.272C337.778 280.464 336.378 281.06 334.768 281.061Z" fill="black"/>
<line x1="516" y1="343.5" x2="1389" y2="343.5" stroke="#FF9900" stroke-width="5"/>
<path d="M520.191 180V138.766H534.323C538.987 138.766 542.536 139.7 544.972 141.569C547.407 143.438 548.625 146.223 548.625 149.924C548.625 151.812 548.115 153.511 547.096 155.021C546.076 156.532 544.585 157.702 542.621 158.533C544.849 159.137 546.567 160.28 547.775 161.96C549.003 163.621 549.616 165.623 549.616 167.964C549.616 171.834 548.37 174.808 545.878 176.885C543.405 178.962 539.855 180 535.229 180H520.191ZM527.356 161.394V174.279H535.314C537.561 174.279 539.317 173.722 540.582 172.608C541.847 171.494 542.479 169.946 542.479 167.964C542.479 163.678 540.289 161.488 535.909 161.394H527.356ZM527.356 156.126H534.38C536.608 156.126 538.345 155.626 539.591 154.625C540.856 153.605 541.488 152.171 541.488 150.32C541.488 148.281 540.903 146.809 539.732 145.902C538.581 144.996 536.778 144.543 534.323 144.543H527.356V156.126ZM588.245 166.576C587.83 170.975 586.206 174.411 583.374 176.885C580.542 179.339 576.775 180.566 572.074 180.566C568.789 180.566 565.891 179.792 563.38 178.244C560.888 176.677 558.962 174.459 557.603 171.589C556.243 168.719 555.535 165.387 555.479 161.592V157.74C555.479 153.851 556.168 150.424 557.546 147.46C558.924 144.496 560.897 142.211 563.465 140.606C566.051 139.002 569.035 138.199 572.414 138.199C576.964 138.199 580.627 139.436 583.402 141.909C586.178 144.382 587.792 147.875 588.245 152.388H581.108C580.769 149.424 579.9 147.29 578.503 145.987C577.125 144.666 575.095 144.005 572.414 144.005C569.299 144.005 566.901 145.147 565.221 147.432C563.559 149.697 562.71 153.03 562.672 157.429V161.082C562.672 165.538 563.465 168.936 565.051 171.277C566.656 173.618 568.997 174.789 572.074 174.789C574.887 174.789 577.002 174.157 578.418 172.892C579.834 171.627 580.731 169.521 581.108 166.576H588.245ZM618.774 161.592H601.839V174.279H621.635V180H594.674V138.766H621.437V144.543H601.839V155.928H618.774V161.592ZM634.634 164.679V180H627.469V138.766H643.243C647.85 138.766 651.503 139.965 654.203 142.362C656.922 144.76 658.281 147.932 658.281 151.878C658.281 155.918 656.95 159.062 654.288 161.309C651.645 163.555 647.935 164.679 643.158 164.679H634.634ZM634.634 158.93H643.243C645.792 158.93 647.737 158.335 649.077 157.146C650.418 155.937 651.088 154.2 651.088 151.935C651.088 149.707 650.408 147.932 649.049 146.61C647.689 145.27 645.82 144.581 643.441 144.543H634.634V158.93ZM697.477 160.459C697.477 164.499 696.778 168.049 695.381 171.107C693.984 174.147 691.982 176.488 689.377 178.131C686.79 179.755 683.807 180.566 680.428 180.566C677.086 180.566 674.103 179.755 671.479 178.131C668.873 176.488 666.853 174.157 665.418 171.136C664.002 168.115 663.285 164.632 663.266 160.686V158.363C663.266 154.342 663.974 150.792 665.39 147.715C666.825 144.637 668.835 142.287 671.422 140.663C674.027 139.021 677.01 138.199 680.371 138.199C683.732 138.199 686.705 139.011 689.292 140.635C691.897 142.24 693.908 144.562 695.324 147.602C696.74 150.622 697.458 154.144 697.477 158.165V160.459ZM690.312 158.307C690.312 153.738 689.443 150.235 687.706 147.8C685.988 145.364 683.543 144.146 680.371 144.146C677.275 144.146 674.849 145.364 673.093 147.8C671.356 150.216 670.468 153.643 670.431 158.08V160.459C670.431 164.99 671.309 168.493 673.064 170.966C674.839 173.439 677.294 174.676 680.428 174.676C683.6 174.676 686.035 173.467 687.734 171.051C689.452 168.634 690.312 165.104 690.312 160.459V158.307ZM736.077 166.576C735.662 170.975 734.038 174.411 731.206 176.885C728.374 179.339 724.607 180.566 719.906 180.566C716.621 180.566 713.723 179.792 711.212 178.244C708.72 176.677 706.794 174.459 705.435 171.589C704.075 168.719 703.367 165.387 703.311 161.592V157.74C703.311 153.851 704 150.424 705.378 147.46C706.756 144.496 708.729 142.211 711.297 140.606C713.883 139.002 716.867 138.199 720.246 138.199C724.796 138.199 728.459 139.436 731.234 141.909C734.01 144.382 735.624 147.875 736.077 152.388H728.94C728.601 149.424 727.732 147.29 726.335 145.987C724.957 144.666 722.927 144.005 720.246 144.005C717.131 144.005 714.733 145.147 713.053 147.432C711.391 149.697 710.542 153.03 710.504 157.429V161.082C710.504 165.538 711.297 168.936 712.883 171.277C714.488 173.618 716.829 174.789 719.906 174.789C722.719 174.789 724.834 174.157 726.25 172.892C727.666 171.627 728.563 169.521 728.94 166.576H736.077ZM773.97 166.576C773.554 170.975 771.931 174.411 769.099 176.885C766.267 179.339 762.5 180.566 757.799 180.566C754.514 180.566 751.616 179.792 749.104 178.244C746.612 176.677 744.687 174.459 743.327 171.589C741.968 168.719 741.26 165.387 741.203 161.592V157.74C741.203 153.851 741.892 150.424 743.271 147.46C744.649 144.496 746.622 142.211 749.189 140.606C751.776 139.002 754.759 138.199 758.139 138.199C762.689 138.199 766.352 139.436 769.127 141.909C771.902 144.382 773.517 147.875 773.97 152.388H766.833C766.493 149.424 765.625 147.29 764.228 145.987C762.849 144.666 760.82 144.005 758.139 144.005C755.023 144.005 752.626 145.147 750.945 147.432C749.284 149.697 748.434 153.03 748.396 157.429V161.082C748.396 165.538 749.189 168.936 750.775 171.277C752.38 173.618 754.721 174.789 757.799 174.789C760.612 174.789 762.727 174.157 764.143 172.892C765.559 171.627 766.455 169.521 766.833 166.576H773.97ZM805.66 138.766H812.825V180H805.66V150.632L787.563 180H780.398V138.766H787.563V168.162L805.66 138.766ZM846.668 138.766H853.833V180H846.668V150.632L828.571 180H821.406V138.766H828.571V168.162L846.668 138.766ZM846.895 128.259C846.895 130.638 846.064 132.563 844.402 134.036C842.741 135.509 840.522 136.245 837.747 136.245C834.972 136.245 832.753 135.509 831.092 134.036C829.43 132.563 828.6 130.638 828.6 128.259H833.754C833.754 129.505 834.103 130.477 834.802 131.176C835.519 131.855 836.501 132.195 837.747 132.195C838.993 132.195 839.965 131.855 840.664 131.176C841.363 130.477 841.712 129.505 841.712 128.259H846.895ZM893.878 166.576C893.463 170.975 891.839 174.411 889.007 176.885C886.175 179.339 882.408 180.566 877.707 180.566C874.422 180.566 871.524 179.792 869.013 178.244C866.521 176.677 864.595 174.459 863.235 171.589C861.876 168.719 861.168 165.387 861.111 161.592V157.74C861.111 153.851 861.8 150.424 863.179 147.46C864.557 144.496 866.53 142.211 869.098 140.606C871.684 139.002 874.667 138.199 878.047 138.199C882.597 138.199 886.26 139.436 889.035 141.909C891.811 144.382 893.425 147.875 893.878 152.388H886.741C886.401 149.424 885.533 147.29 884.136 145.987C882.757 144.666 880.728 144.005 878.047 144.005C874.932 144.005 872.534 145.147 870.854 147.432C869.192 149.697 868.342 153.03 868.305 157.429V161.082C868.305 165.538 869.098 168.936 870.684 171.277C872.288 173.618 874.63 174.789 877.707 174.789C880.52 174.789 882.635 174.157 884.051 172.892C885.467 171.627 886.364 169.521 886.741 166.576H893.878ZM912.513 162.328H907.642V180H900.505V138.766H907.642V156.098H911.578L923.699 138.766H932.479L918.318 158.505L933.725 180H925.115L912.513 162.328ZM969.691 160.459C969.691 164.499 968.993 168.049 967.596 171.107C966.199 174.147 964.197 176.488 961.592 178.131C959.005 179.755 956.022 180.566 952.643 180.566C949.301 180.566 946.318 179.755 943.693 178.131C941.088 176.488 939.068 174.157 937.633 171.136C936.217 168.115 935.499 164.632 935.48 160.686V158.363C935.48 154.342 936.188 150.792 937.604 147.715C939.039 144.637 941.05 142.287 943.637 140.663C946.242 139.021 949.225 138.199 952.586 138.199C955.947 138.199 958.92 139.011 961.507 140.635C964.112 142.24 966.123 144.562 967.539 147.602C968.955 150.622 969.673 154.144 969.691 158.165V160.459ZM962.526 158.307C962.526 153.738 961.658 150.235 959.921 147.8C958.203 145.364 955.758 144.146 952.586 144.146C949.49 144.146 947.063 145.364 945.308 147.8C943.571 150.216 942.683 153.643 942.646 158.08V160.459C942.646 164.99 943.523 168.493 945.279 170.966C947.054 173.439 949.508 174.676 952.643 174.676C955.814 174.676 958.25 173.467 959.949 171.051C961.667 168.634 962.526 165.104 962.526 160.459V158.307ZM1000.93 161.592H983.993V174.279H1003.79V180H976.828V138.766H1003.59V144.543H983.993V155.928H1000.93V161.592ZM553.1 228.459C553.1 232.499 552.401 236.049 551.004 239.107C549.607 242.147 547.605 244.488 545 246.131C542.413 247.755 539.43 248.566 536.051 248.566C532.709 248.566 529.726 247.755 527.102 246.131C524.496 244.488 522.476 242.157 521.041 239.136C519.625 236.115 518.908 232.632 518.889 228.686V226.363C518.889 222.342 519.597 218.792 521.013 215.715C522.448 212.637 524.458 210.287 527.045 208.663C529.65 207.021 532.633 206.199 535.994 206.199C539.355 206.199 542.328 207.011 544.915 208.635C547.521 210.24 549.531 212.562 550.947 215.602C552.363 218.622 553.081 222.144 553.1 226.165V228.459ZM545.935 226.307C545.935 221.738 545.066 218.235 543.329 215.8C541.611 213.364 539.166 212.146 535.994 212.146C532.898 212.146 530.472 213.364 528.716 215.8C526.979 218.216 526.091 221.643 526.054 226.08V228.459C526.054 232.99 526.932 236.493 528.688 238.966C530.462 241.439 532.917 242.676 536.051 242.676C539.223 242.676 541.658 241.467 543.357 239.051C545.076 236.634 545.935 233.104 545.935 228.459V226.307ZM586.291 212.543H567.288V222.54H575.728C578.748 222.54 581.382 223.059 583.629 224.098C585.876 225.136 587.584 226.609 588.755 228.516C589.925 230.423 590.511 232.632 590.511 235.143C590.511 238.994 589.199 242.09 586.574 244.432C583.969 246.773 580.41 247.962 575.897 248H560.123V206.766H586.291V212.543ZM567.288 228.289V242.279H575.699C578.116 242.279 579.994 241.628 581.335 240.325C582.694 239.004 583.374 237.257 583.374 235.086C583.374 233.009 582.713 231.367 581.392 230.158C580.07 228.95 578.239 228.327 575.897 228.289H567.288ZM604.02 206.766V242.279H616.594V206.766H623.73V242.279H636.22V206.766H643.356V242.506H648.171L647.604 257.912H641.317V248H596.826V206.766H604.02ZM678.644 229.592H661.708V242.279H681.504V248H654.543V206.766H681.306V212.543H661.708V223.928H678.644V229.592ZM718.802 234.576C718.386 238.975 716.763 242.411 713.931 244.885C711.099 247.339 707.332 248.566 702.631 248.566C699.346 248.566 696.448 247.792 693.937 246.244C691.444 244.677 689.519 242.459 688.159 239.589C686.8 236.719 686.092 233.387 686.035 229.592V225.74C686.035 221.851 686.724 218.424 688.103 215.46C689.481 212.496 691.454 210.211 694.021 208.606C696.608 207.002 699.591 206.199 702.971 206.199C707.521 206.199 711.184 207.436 713.959 209.909C716.734 212.382 718.349 215.875 718.802 220.388H711.665C711.325 217.424 710.457 215.29 709.06 213.987C707.681 212.666 705.652 212.005 702.971 212.005C699.855 212.005 697.458 213.147 695.777 215.432C694.116 217.697 693.266 221.03 693.229 225.429V229.082C693.229 233.538 694.021 236.936 695.607 239.277C697.212 241.618 699.553 242.789 702.631 242.789C705.444 242.789 707.559 242.157 708.975 240.892C710.391 239.627 711.287 237.521 711.665 234.576H718.802ZM754.174 212.543H741.316V248H734.208V212.543H721.464V206.766H754.174V212.543ZM759.611 248V206.766H773.743C778.407 206.766 781.956 207.7 784.392 209.569C786.827 211.438 788.045 214.223 788.045 217.924C788.045 219.812 787.535 221.511 786.516 223.021C785.496 224.532 784.005 225.702 782.041 226.533C784.269 227.137 785.987 228.28 787.195 229.96C788.423 231.621 789.036 233.623 789.036 235.964C789.036 239.834 787.79 242.808 785.298 244.885C782.825 246.962 779.275 248 774.649 248H759.611ZM766.776 229.394V242.279H774.734C776.981 242.279 778.737 241.722 780.002 240.608C781.267 239.494 781.899 237.946 781.899 235.964C781.899 231.678 779.709 229.488 775.329 229.394H766.776ZM766.776 224.126H773.8C776.028 224.126 777.765 223.626 779.011 222.625C780.276 221.605 780.908 220.171 780.908 218.32C780.908 216.281 780.323 214.809 779.152 213.902C778.001 212.996 776.198 212.543 773.743 212.543H766.776V224.126ZM829.109 228.459C829.109 232.499 828.411 236.049 827.014 239.107C825.617 242.147 823.615 244.488 821.01 246.131C818.423 247.755 815.44 248.566 812.061 248.566C808.719 248.566 805.736 247.755 803.111 246.131C800.506 244.488 798.486 242.157 797.051 239.136C795.635 236.115 794.917 232.632 794.898 228.686V226.363C794.898 222.342 795.606 218.792 797.022 215.715C798.457 212.637 800.468 210.287 803.055 208.663C805.66 207.021 808.643 206.199 812.004 206.199C815.365 206.199 818.338 207.011 820.925 208.635C823.53 210.24 825.541 212.562 826.957 215.602C828.373 218.622 829.09 222.144 829.109 226.165V228.459ZM821.944 226.307C821.944 221.738 821.076 218.235 819.339 215.8C817.621 213.364 815.176 212.146 812.004 212.146C808.908 212.146 806.481 213.364 804.726 215.8C802.989 218.216 802.101 221.643 802.063 226.08V228.459C802.063 232.99 802.941 236.493 804.697 238.966C806.472 241.439 808.926 242.676 812.061 242.676C815.232 242.676 817.668 241.467 819.367 239.051C821.085 236.634 821.944 233.104 821.944 228.459V226.307ZM873.771 238.399H857.798L854.456 248H847.008L862.584 206.766H869.013L884.617 248H877.141L873.771 238.399ZM859.809 232.622H871.76L865.784 215.517L859.809 232.622ZM889.318 248V206.766H903.45C908.114 206.766 911.663 207.7 914.099 209.569C916.534 211.438 917.752 214.223 917.752 217.924C917.752 219.812 917.242 221.511 916.223 223.021C915.203 224.532 913.712 225.702 911.748 226.533C913.976 227.137 915.694 228.28 916.902 229.96C918.13 231.621 918.743 233.623 918.743 235.964C918.743 239.834 917.497 242.808 915.005 244.885C912.532 246.962 908.982 248 904.356 248H889.318ZM896.483 229.394V242.279H904.441C906.688 242.279 908.444 241.722 909.709 240.608C910.974 239.494 911.606 237.946 911.606 235.964C911.606 231.678 909.416 229.488 905.036 229.394H896.483ZM896.483 224.126H903.507C905.735 224.126 907.472 223.626 908.718 222.625C909.983 221.605 910.615 220.171 910.615 218.32C910.615 216.281 910.03 214.809 908.859 213.902C907.708 212.996 905.905 212.543 903.45 212.543H896.483V224.126ZM954.908 212.543H942.051V248H934.942V212.543H922.198V206.766H954.908V212.543ZM992.461 228.459C992.461 232.499 991.762 236.049 990.365 239.107C988.968 242.147 986.967 244.488 984.361 246.131C981.775 247.755 978.792 248.566 975.412 248.566C972.07 248.566 969.087 247.755 966.463 246.131C963.857 244.488 961.837 242.157 960.402 239.136C958.986 236.115 958.269 232.632 958.25 228.686V226.363C958.25 222.342 958.958 218.792 960.374 215.715C961.809 212.637 963.82 210.287 966.406 208.663C969.012 207.021 971.995 206.199 975.355 206.199C978.716 206.199 981.69 207.011 984.276 208.635C986.882 210.24 988.893 212.562 990.309 215.602C991.725 218.622 992.442 222.144 992.461 226.165V228.459ZM985.296 226.307C985.296 221.738 984.427 218.235 982.69 215.8C980.972 213.364 978.527 212.146 975.355 212.146C972.259 212.146 969.833 213.364 968.077 215.8C966.34 218.216 965.453 221.643 965.415 226.08V228.459C965.415 232.99 966.293 236.493 968.049 238.966C969.824 241.439 972.278 242.676 975.412 242.676C978.584 242.676 981.02 241.467 982.719 239.051C984.437 236.634 985.296 233.104 985.296 228.459V226.307ZM1008.89 206.766L1020.78 238.371L1032.65 206.766H1041.91V248H1034.77V234.406L1035.48 216.225L1023.3 248H1018.18L1006.03 216.253L1006.73 234.406V248H999.598V206.766H1008.89ZM1083.31 228.459C1083.31 232.499 1082.61 236.049 1081.22 239.107C1079.82 242.147 1077.82 244.488 1075.21 246.131C1072.63 247.755 1069.64 248.566 1066.26 248.566C1062.92 248.566 1059.94 247.755 1057.31 246.131C1054.71 244.488 1052.69 242.157 1051.25 239.136C1049.84 236.115 1049.12 232.632 1049.1 228.686V226.363C1049.1 222.342 1049.81 218.792 1051.23 215.715C1052.66 212.637 1054.67 210.287 1057.26 208.663C1059.86 207.021 1062.85 206.199 1066.21 206.199C1069.57 206.199 1072.54 207.011 1075.13 208.635C1077.73 210.24 1079.74 212.562 1081.16 215.602C1082.58 218.622 1083.29 222.144 1083.31 226.165V228.459ZM1076.15 226.307C1076.15 221.738 1075.28 218.235 1073.54 215.8C1071.82 213.364 1069.38 212.146 1066.21 212.146C1063.11 212.146 1060.68 213.364 1058.93 215.8C1057.19 218.216 1056.3 221.643 1056.27 226.08V228.459C1056.27 232.99 1057.14 236.493 1058.9 238.966C1060.68 241.439 1063.13 242.676 1066.26 242.676C1069.44 242.676 1071.87 241.467 1073.57 239.051C1075.29 236.634 1076.15 233.104 1076.15 228.459V226.307ZM1116.5 212.543H1097.5V222.54H1105.94C1108.96 222.54 1111.6 223.059 1113.84 224.098C1116.09 225.136 1117.8 226.609 1118.97 228.516C1120.14 230.423 1120.72 232.632 1120.72 235.143C1120.72 238.994 1119.41 242.09 1116.79 244.432C1114.18 246.773 1110.62 247.962 1106.11 248H1090.34V206.766H1116.5V212.543ZM1097.5 228.289V242.279H1105.91C1108.33 242.279 1110.21 241.628 1111.55 240.325C1112.91 239.004 1113.59 237.257 1113.59 235.086C1113.59 233.009 1112.93 231.367 1111.6 230.158C1110.28 228.95 1108.45 228.327 1106.11 228.289H1097.5ZM1152.19 206.766H1159.35V248H1152.19V218.632L1134.09 248H1126.93V206.766H1134.09V236.162L1152.19 206.766ZM1200.87 206.766V248H1193.73V212.543H1181.1L1180.37 228.487C1180.08 233.472 1179.47 237.342 1178.53 240.099C1177.6 242.836 1176.25 244.838 1174.48 246.103C1172.7 247.368 1170.32 248 1167.34 248H1165.53V242.279L1166.66 242.194C1168.3 242.043 1169.57 241.467 1170.45 240.467C1171.36 239.466 1172.04 237.956 1172.49 235.936C1172.97 233.896 1173.3 230.904 1173.48 226.958L1174.28 206.766H1200.87ZM1234.77 206.766H1241.93V248H1234.77V218.632L1216.67 248H1209.51V206.766H1216.67V236.162L1234.77 206.766ZM1281.98 234.576C1281.56 238.975 1279.94 242.411 1277.11 244.885C1274.28 247.339 1270.51 248.566 1265.81 248.566C1262.52 248.566 1259.63 247.792 1257.11 246.244C1254.62 244.677 1252.7 242.459 1251.34 239.589C1249.98 236.719 1249.27 233.387 1249.21 229.592V225.74C1249.21 221.851 1249.9 218.424 1251.28 215.46C1252.66 212.496 1254.63 210.211 1257.2 208.606C1259.79 207.002 1262.77 206.199 1266.15 206.199C1270.7 206.199 1274.36 207.436 1277.14 209.909C1279.91 212.382 1281.53 215.875 1281.98 220.388H1274.84C1274.5 217.424 1273.63 215.29 1272.24 213.987C1270.86 212.666 1268.83 212.005 1266.15 212.005C1263.03 212.005 1260.64 213.147 1258.96 215.432C1257.29 217.697 1256.44 221.03 1256.41 225.429V229.082C1256.41 233.538 1257.2 236.936 1258.79 239.277C1260.39 241.618 1262.73 242.789 1265.81 242.789C1268.62 242.789 1270.74 242.157 1272.15 240.892C1273.57 239.627 1274.47 237.521 1274.84 234.576H1281.98ZM1317.35 212.543H1304.49V248H1297.39V212.543H1284.64V206.766H1317.35V212.543ZM1354.9 228.459C1354.9 232.499 1354.21 236.049 1352.81 239.107C1351.41 242.147 1349.41 244.488 1346.8 246.131C1344.22 247.755 1341.24 248.566 1337.86 248.566C1334.51 248.566 1331.53 247.755 1328.91 246.131C1326.3 244.488 1324.28 242.157 1322.85 239.136C1321.43 236.115 1320.71 232.632 1320.69 228.686V226.363C1320.69 222.342 1321.4 218.792 1322.82 215.715C1324.25 212.637 1326.26 210.287 1328.85 208.663C1331.46 207.021 1334.44 206.199 1337.8 206.199C1341.16 206.199 1344.13 207.011 1346.72 208.635C1349.33 210.24 1351.34 212.562 1352.75 215.602C1354.17 218.622 1354.89 222.144 1354.9 226.165V228.459ZM1347.74 226.307C1347.74 221.738 1346.87 218.235 1345.13 215.8C1343.42 213.364 1340.97 212.146 1337.8 212.146C1334.7 212.146 1332.28 213.364 1330.52 215.8C1328.78 218.216 1327.9 221.643 1327.86 226.08V228.459C1327.86 232.99 1328.74 236.493 1330.49 238.966C1332.27 241.439 1334.72 242.676 1337.86 242.676C1341.03 242.676 1343.46 241.467 1345.16 239.051C1346.88 236.634 1347.74 233.104 1347.74 228.459V226.307ZM1362.04 248V206.766H1376.17C1380.84 206.766 1384.39 207.7 1386.82 209.569C1389.26 211.438 1390.47 214.223 1390.47 217.924C1390.47 219.812 1389.96 221.511 1388.95 223.021C1387.93 224.532 1386.43 225.702 1384.47 226.533C1386.7 227.137 1388.42 228.28 1389.62 229.96C1390.85 231.621 1391.47 233.623 1391.47 235.964C1391.47 239.834 1390.22 242.808 1387.73 244.885C1385.25 246.962 1381.7 248 1377.08 248H1362.04ZM1369.21 229.394V242.279H1377.16C1379.41 242.279 1381.17 241.722 1382.43 240.608C1383.7 239.494 1384.33 237.946 1384.33 235.964C1384.33 231.678 1382.14 229.488 1377.76 229.394H1369.21ZM1369.21 224.126H1376.23C1378.46 224.126 1380.19 223.626 1381.44 222.625C1382.71 221.605 1383.34 220.171 1383.34 218.32C1383.34 216.281 1382.75 214.809 1381.58 213.902C1380.43 212.996 1378.63 212.543 1376.17 212.543H1369.21V224.126Z" fill="#FF9900"/>
<path d="M528.535 375L526.557 369.917H520.048L518.093 375H516L522.417 358.509H524.28L530.674 375H528.535ZM524.096 363.109C524.05 362.986 523.973 362.764 523.866 362.442C523.759 362.12 523.651 361.79 523.544 361.453C523.452 361.1 523.375 360.832 523.314 360.648C523.207 361.123 523.084 361.591 522.946 362.051C522.808 362.496 522.693 362.848 522.601 363.109L520.738 368.077H525.936L524.096 363.109ZM547.272 358.578C549.327 358.578 550.876 358.885 551.918 359.498C552.976 360.096 553.505 361.146 553.505 362.649C553.505 363.615 553.237 364.42 552.7 365.064C552.164 365.693 551.389 366.099 550.377 366.283V366.398C551.067 366.505 551.688 366.705 552.24 366.996C552.808 367.287 553.252 367.701 553.574 368.238C553.896 368.775 554.057 369.472 554.057 370.331C554.057 371.818 553.544 372.968 552.516 373.781C551.504 374.594 550.117 375 548.353 375H542.58V358.578H547.272ZM547.686 365.57C549.097 365.57 550.063 365.348 550.584 364.903C551.106 364.443 551.366 363.768 551.366 362.879C551.366 361.974 551.044 361.33 550.4 360.947C549.772 360.548 548.76 360.349 547.364 360.349H544.65V365.57H547.686ZM544.65 367.295V373.252H547.962C549.419 373.252 550.431 372.968 550.998 372.401C551.566 371.834 551.849 371.09 551.849 370.17C551.849 369.311 551.55 368.621 550.952 368.1C550.37 367.563 549.319 367.295 547.801 367.295H544.65ZM572.397 375H570.327V360.395H565.198V358.578H577.503V360.395H572.397V375ZM603.519 366.766C603.519 368.468 603.228 369.955 602.645 371.228C602.078 372.485 601.235 373.467 600.115 374.172C598.996 374.877 597.608 375.23 595.952 375.23C594.25 375.23 592.832 374.877 591.697 374.172C590.578 373.467 589.742 372.478 589.19 371.205C588.638 369.932 588.362 368.445 588.362 366.743C588.362 365.056 588.638 363.584 589.19 362.327C589.742 361.07 590.578 360.088 591.697 359.383C592.832 358.678 594.258 358.325 595.975 358.325C597.616 358.325 598.996 358.678 600.115 359.383C601.235 360.073 602.078 361.054 602.645 362.327C603.228 363.584 603.519 365.064 603.519 366.766ZM590.547 366.766C590.547 368.836 590.984 370.469 591.858 371.665C592.732 372.846 594.097 373.436 595.952 373.436C597.823 373.436 599.188 372.846 600.046 371.665C600.905 370.469 601.334 368.836 601.334 366.766C601.334 364.696 600.905 363.078 600.046 361.913C599.188 360.732 597.831 360.142 595.975 360.142C594.12 360.142 592.748 360.732 591.858 361.913C590.984 363.078 590.547 364.696 590.547 366.766ZM636.185 375H616.819V358.578H618.889V373.16H625.444V358.578H627.514V373.16H634.092V358.578H636.185V375ZM662.316 375H659.832L652.403 366.674V375H650.333V358.578H652.403V366.536L659.648 358.578H661.994L654.864 366.559L662.316 375ZM688.09 366.766C688.09 368.468 687.799 369.955 687.216 371.228C686.649 372.485 685.806 373.467 684.686 374.172C683.567 374.877 682.179 375.23 680.523 375.23C678.821 375.23 677.403 374.877 676.268 374.172C675.149 373.467 674.313 372.478 673.761 371.205C673.209 369.932 672.933 368.445 672.933 366.743C672.933 365.056 673.209 363.584 673.761 362.327C674.313 361.07 675.149 360.088 676.268 359.383C677.403 358.678 678.829 358.325 680.546 358.325C682.187 358.325 683.567 358.678 684.686 359.383C685.806 360.073 686.649 361.054 687.216 362.327C687.799 363.584 688.09 365.064 688.09 366.766ZM675.118 366.766C675.118 368.836 675.555 370.469 676.429 371.665C677.303 372.846 678.668 373.436 680.523 373.436C682.394 373.436 683.759 372.846 684.617 371.665C685.476 370.469 685.905 368.836 685.905 366.766C685.905 364.696 685.476 363.078 684.617 361.913C683.759 360.732 682.402 360.142 680.546 360.142C678.691 360.142 677.319 360.732 676.429 361.913C675.555 363.078 675.118 364.696 675.118 366.766ZM712.763 375H710.693V360.395H705.495C705.357 361.53 705.204 362.726 705.035 363.983C704.866 365.225 704.698 366.413 704.529 367.548C704.36 368.683 704.192 369.649 704.023 370.446C703.824 371.473 703.578 372.347 703.287 373.068C702.996 373.789 702.605 374.333 702.114 374.701C701.639 375.069 701.01 375.253 700.228 375.253C699.967 375.253 699.699 375.222 699.423 375.161C699.162 375.115 698.932 375.054 698.733 374.977V373.252C698.902 373.329 699.093 373.398 699.308 373.459C699.523 373.505 699.753 373.528 699.998 373.528C700.458 373.528 700.818 373.344 701.079 372.976C701.355 372.593 701.57 372.125 701.723 371.573C701.876 371.006 702.007 370.446 702.114 369.894C702.237 369.311 702.382 368.46 702.551 367.341C702.735 366.206 702.927 364.888 703.126 363.385C703.341 361.882 703.555 360.28 703.77 358.578H712.763V375ZM737.189 375L735.211 369.917H728.702L726.747 375H724.654L731.071 358.509H732.934L739.328 375H737.189ZM732.75 363.109C732.704 362.986 732.627 362.764 732.52 362.442C732.413 362.12 732.305 361.79 732.198 361.453C732.106 361.1 732.029 360.832 731.968 360.648C731.861 361.123 731.738 361.591 731.6 362.051C731.462 362.496 731.347 362.848 731.255 363.109L729.392 368.077H734.59L732.75 363.109Z" fill="#FF9900"/>
</svg>
