<svg width="496" height="496" viewBox="0 0 496 496" fill="none" xmlns="http://www.w3.org/2000/svg">
<rect x="0.512573" y="248" width="350" height="350" rx="20" transform="rotate(-45 0.512573 248)" fill="#FF9900"/>
<rect x="18" y="247.81" width="325" height="325" rx="20" transform="rotate(-45 18 247.81)" fill="black"/>
<rect x="43" y="248.061" width="290" height="290" transform="rotate(-45 43 248.061)" fill="#FF9900"/>
<path d="M171.336 281.208L128.286 281.246L128.22 207.746L167.385 207.711C175.085 207.704 181.177 209.519 185.66 213.155C190.213 216.721 192.492 221.584 192.498 227.744C192.5 230.264 191.908 232.854 190.72 235.515C189.602 238.106 187.924 240.173 185.685 241.715C188.907 243.182 191.464 245.63 193.357 249.058C195.25 252.416 196.198 256.021 196.202 259.871C196.206 264.141 195.159 267.886 193.062 271.108C191.035 274.26 188.132 276.748 184.354 278.571C180.645 280.324 176.306 281.203 171.336 281.208ZM139.91 246.901L139.932 270.946L167.757 270.921C172.867 270.916 176.716 269.863 179.304 267.761C181.962 265.588 183.289 262.542 183.286 258.622C183.284 256.592 182.757 254.703 181.706 252.954C180.724 251.134 179.358 249.666 177.607 248.547C175.856 247.429 173.86 246.871 171.62 246.873L139.91 246.901ZM139.902 237.661L171.822 237.632C174.202 237.63 176.161 236.788 177.7 235.107C179.238 233.426 180.006 231.29 180.004 228.7C179.997 221.35 174.989 217.68 164.979 217.689L139.884 217.711L139.902 237.661ZM243.982 280.933C238.312 280.938 232.991 279.998 228.019 278.112C223.118 276.226 218.775 273.605 214.992 270.249C211.279 266.822 208.336 262.905 206.162 258.497C204.058 254.018 203.003 249.259 202.999 244.219C202.994 239.179 204.04 234.453 206.136 230.042C208.302 225.56 211.239 221.637 214.946 218.274C218.722 214.84 223.06 212.176 227.958 210.282C232.927 208.388 238.246 207.438 243.916 207.433C249.586 207.428 254.872 208.368 259.773 210.253C264.745 212.139 269.087 214.795 272.8 218.222C276.584 221.578 279.527 225.496 281.631 229.974C283.805 234.382 284.894 239.106 284.899 244.146C284.903 249.186 283.823 253.947 281.657 258.429C279.561 262.841 276.624 266.763 272.847 270.197C269.14 273.56 264.802 276.189 259.834 278.083C254.936 279.978 249.652 280.928 243.982 280.933ZM215.179 244.208C215.183 249.108 216.517 253.447 219.18 257.225C221.914 261.002 225.452 263.974 229.793 266.14C234.135 268.306 238.861 269.387 243.971 269.383C247.751 269.379 251.321 268.746 254.68 267.483C258.109 266.22 261.152 264.467 263.81 262.225C266.538 259.912 268.67 257.216 270.208 254.134C271.745 251.053 272.512 247.692 272.509 244.052C272.504 239.012 271.17 234.603 268.507 230.826C265.913 226.978 262.446 223.971 258.104 221.805C253.762 219.639 249.036 218.558 243.926 218.563C238.676 218.567 233.882 219.657 229.544 221.831C225.206 224.004 221.708 227.018 219.052 230.87C216.465 234.722 215.174 239.168 215.179 244.208ZM291.403 281.1L334.699 203.361L378.238 281.022L364.588 281.034L334.72 227.721L305.053 281.088L291.403 281.1ZM334.768 281.061C333.158 281.063 331.758 280.469 330.567 279.28C329.376 278.091 328.779 276.692 328.778 275.082C328.776 273.402 329.37 272.001 330.559 270.88C331.748 269.689 333.148 269.093 334.758 269.091C336.368 269.09 337.768 269.684 338.959 270.872C340.15 271.991 340.746 273.391 340.748 275.071C340.749 276.681 340.156 278.081 338.967 279.272C337.778 280.464 336.378 281.06 334.768 281.061Z" fill="black"/>
</svg>
