<svg width="1516" height="496" viewBox="0 0 1516 496" fill="none" xmlns="http://www.w3.org/2000/svg">
<rect x="0.512573" y="248" width="350" height="350" rx="20" transform="rotate(-45 0.512573 248)" fill="#FF9900"/>
<rect x="18" y="247.81" width="325" height="325" rx="20" transform="rotate(-45 18 247.81)" fill="black"/>
<rect x="43" y="248.061" width="290" height="290" transform="rotate(-45 43 248.061)" fill="#FF9900"/>
<path d="M171.336 281.208L128.286 281.246L128.22 207.746L167.385 207.711C175.085 207.704 181.177 209.519 185.66 213.155C190.213 216.721 192.492 221.584 192.498 227.744C192.5 230.264 191.908 232.854 190.72 235.515C189.602 238.106 187.924 240.173 185.685 241.715C188.907 243.182 191.464 245.63 193.357 249.058C195.25 252.416 196.198 256.021 196.202 259.871C196.206 264.141 195.159 267.886 193.062 271.108C191.035 274.26 188.132 276.748 184.354 278.571C180.645 280.324 176.306 281.203 171.336 281.208ZM139.91 246.901L139.932 270.946L167.757 270.921C172.867 270.916 176.716 269.863 179.304 267.761C181.962 265.588 183.289 262.542 183.286 258.622C183.284 256.592 182.757 254.703 181.706 252.954C180.724 251.134 179.358 249.666 177.607 248.547C175.856 247.429 173.86 246.871 171.62 246.873L139.91 246.901ZM139.902 237.661L171.822 237.632C174.202 237.63 176.161 236.788 177.7 235.107C179.238 233.426 180.006 231.29 180.004 228.7C179.997 221.35 174.989 217.68 164.979 217.689L139.884 217.711L139.902 237.661ZM243.982 280.933C238.312 280.938 232.991 279.998 228.019 278.112C223.118 276.226 218.775 273.605 214.992 270.249C211.279 266.822 208.336 262.905 206.162 258.497C204.058 254.018 203.003 249.259 202.999 244.219C202.994 239.179 204.04 234.453 206.136 230.042C208.302 225.56 211.239 221.637 214.946 218.274C218.722 214.84 223.06 212.176 227.958 210.282C232.927 208.388 238.246 207.438 243.916 207.433C249.586 207.428 254.872 208.368 259.773 210.253C264.745 212.139 269.087 214.795 272.8 218.222C276.584 221.578 279.527 225.496 281.631 229.974C283.805 234.382 284.894 239.106 284.899 244.146C284.903 249.186 283.823 253.947 281.657 258.429C279.561 262.841 276.624 266.763 272.847 270.197C269.14 273.56 264.802 276.189 259.834 278.083C254.936 279.978 249.652 280.928 243.982 280.933ZM215.179 244.208C215.183 249.108 216.517 253.447 219.18 257.225C221.914 261.002 225.452 263.974 229.793 266.14C234.135 268.306 238.861 269.387 243.971 269.383C247.751 269.379 251.321 268.746 254.68 267.483C258.109 266.22 261.152 264.467 263.81 262.225C266.538 259.912 268.67 257.216 270.208 254.134C271.745 251.053 272.512 247.692 272.509 244.052C272.504 239.012 271.17 234.603 268.507 230.826C265.913 226.978 262.446 223.971 258.104 221.805C253.762 219.639 249.036 218.558 243.926 218.563C238.676 218.567 233.882 219.657 229.544 221.831C225.206 224.004 221.708 227.018 219.052 230.87C216.465 234.722 215.174 239.168 215.179 244.208ZM291.403 281.1L334.699 203.361L378.238 281.022L364.588 281.034L334.72 227.721L305.053 281.088L291.403 281.1ZM334.768 281.061C333.158 281.063 331.758 280.469 330.567 279.28C329.376 278.091 328.779 276.692 328.778 275.082C328.776 273.402 329.37 272.001 330.559 270.88C331.748 269.689 333.148 269.093 334.758 269.091C336.368 269.09 337.768 269.684 338.959 270.872C340.15 271.991 340.746 273.391 340.748 275.071C340.749 276.681 340.156 278.081 338.967 279.272C337.778 280.464 336.378 281.06 334.768 281.061Z" fill="black"/>
<line x1="516" y1="343.5" x2="1516" y2="343.5" stroke="black" stroke-width="5"/>
<path d="M520.77 178V131.078H536.851C542.157 131.078 546.196 132.142 548.968 134.269C551.739 136.396 553.125 139.564 553.125 143.775C553.125 145.924 552.545 147.857 551.385 149.576C550.225 151.295 548.527 152.627 546.293 153.572C548.828 154.26 550.783 155.56 552.158 157.472C553.555 159.362 554.253 161.64 554.253 164.304C554.253 168.708 552.835 172.092 549.999 174.455C547.185 176.818 543.146 178 537.882 178H520.77ZM528.923 156.827V171.49H537.979C540.535 171.49 542.533 170.856 543.973 169.589C545.412 168.321 546.132 166.56 546.132 164.304C546.132 159.427 543.64 156.935 538.655 156.827H528.923ZM528.923 150.833H536.915C539.45 150.833 541.427 150.264 542.845 149.125C544.284 147.965 545.004 146.332 545.004 144.227C545.004 141.906 544.338 140.23 543.006 139.199C541.695 138.168 539.644 137.652 536.851 137.652H528.923V150.833ZM598.21 162.725C597.737 167.73 595.89 171.641 592.667 174.455C589.444 177.248 585.158 178.645 579.809 178.645C576.07 178.645 572.772 177.764 569.915 176.002C567.079 174.219 564.888 171.694 563.341 168.429C561.794 165.163 560.988 161.371 560.924 157.053V152.67C560.924 148.244 561.708 144.345 563.276 140.972C564.845 137.599 567.09 134.999 570.012 133.173C572.955 131.347 576.35 130.434 580.195 130.434C585.373 130.434 589.541 131.841 592.699 134.655C595.857 137.47 597.694 141.444 598.21 146.579H590.089C589.702 143.206 588.714 140.778 587.124 139.296C585.556 137.792 583.246 137.04 580.195 137.04C576.65 137.04 573.922 138.34 572.01 140.939C570.119 143.518 569.152 147.31 569.109 152.315V156.473C569.109 161.543 570.012 165.41 571.816 168.074C573.643 170.738 576.307 172.07 579.809 172.07C583.01 172.07 585.416 171.351 587.027 169.911C588.639 168.472 589.659 166.076 590.089 162.725H598.21ZM632.95 157.053H613.679V171.49H636.205V178H605.525V131.078H635.979V137.652H613.679V150.607H632.95V157.053ZM650.997 160.565V178H642.844V131.078H660.794C666.036 131.078 670.193 132.442 673.266 135.171C676.359 137.899 677.906 141.509 677.906 145.999C677.906 150.597 676.392 154.174 673.362 156.73C670.354 159.287 666.133 160.565 660.697 160.565H650.997ZM650.997 154.023H660.794C663.694 154.023 665.907 153.347 667.433 151.993C668.958 150.618 669.721 148.642 669.721 146.063C669.721 143.528 668.947 141.509 667.4 140.005C665.854 138.479 663.727 137.695 661.02 137.652H650.997V154.023ZM722.508 155.764C722.508 160.361 721.713 164.4 720.123 167.881C718.533 171.34 716.256 174.004 713.291 175.873C710.348 177.721 706.953 178.645 703.107 178.645C699.305 178.645 695.91 177.721 692.924 175.873C689.959 174.004 687.66 171.351 686.027 167.913C684.416 164.476 683.6 160.512 683.578 156.021V153.379C683.578 148.803 684.384 144.764 685.995 141.262C687.628 137.76 689.916 135.085 692.859 133.237C695.824 131.368 699.219 130.434 703.043 130.434C706.867 130.434 710.251 131.357 713.194 133.205C716.159 135.031 718.447 137.674 720.059 141.133C721.67 144.57 722.486 148.577 722.508 153.153V155.764ZM714.354 153.314C714.354 148.115 713.366 144.13 711.39 141.358C709.435 138.587 706.652 137.201 703.043 137.201C699.52 137.201 696.759 138.587 694.761 141.358C692.784 144.108 691.774 148.008 691.731 153.057V155.764C691.731 160.92 692.73 164.905 694.729 167.72C696.748 170.534 699.541 171.941 703.107 171.941C706.717 171.941 709.488 170.566 711.422 167.816C713.377 165.066 714.354 161.049 714.354 155.764V153.314ZM766.433 162.725C765.96 167.73 764.112 171.641 760.89 174.455C757.667 177.248 753.381 178.645 748.031 178.645C744.293 178.645 740.995 177.764 738.138 176.002C735.302 174.219 733.11 171.694 731.563 168.429C730.017 165.163 729.211 161.371 729.146 157.053V152.67C729.146 148.244 729.931 144.345 731.499 140.972C733.067 137.599 735.312 134.999 738.234 133.173C741.178 131.347 744.572 130.434 748.418 130.434C753.596 130.434 757.764 131.841 760.922 134.655C764.08 137.47 765.917 141.444 766.433 146.579H758.312C757.925 143.206 756.937 140.778 755.347 139.296C753.778 137.792 751.469 137.04 748.418 137.04C744.873 137.04 742.145 138.34 740.232 140.939C738.342 143.518 737.375 147.31 737.332 152.315V156.473C737.332 161.543 738.234 165.41 740.039 168.074C741.865 170.738 744.529 172.07 748.031 172.07C751.232 172.07 753.639 171.351 755.25 169.911C756.861 168.472 757.882 166.076 758.312 162.725H766.433ZM809.552 162.725C809.079 167.73 807.231 171.641 804.009 174.455C800.786 177.248 796.5 178.645 791.15 178.645C787.412 178.645 784.114 177.764 781.257 176.002C778.421 174.219 776.229 171.694 774.683 168.429C773.136 165.163 772.33 161.371 772.266 157.053V152.67C772.266 148.244 773.05 144.345 774.618 140.972C776.187 137.599 778.432 134.999 781.354 133.173C784.297 131.347 787.691 130.434 791.537 130.434C796.715 130.434 800.883 131.841 804.041 134.655C807.199 137.47 809.036 141.444 809.552 146.579H801.431C801.044 143.206 800.056 140.778 798.466 139.296C796.897 137.792 794.588 137.04 791.537 137.04C787.992 137.04 785.264 138.34 783.352 140.939C781.461 143.518 780.494 147.31 780.451 152.315V156.473C780.451 161.543 781.354 165.41 783.158 168.074C784.984 170.738 787.648 172.07 791.15 172.07C794.352 172.07 796.758 171.351 798.369 169.911C799.98 168.472 801.001 166.076 801.431 162.725H809.552ZM845.613 131.078H853.767V178H845.613V144.581L825.021 178H816.867V131.078H825.021V164.529L845.613 131.078ZM892.277 131.078H900.431V178H892.277V144.581L871.685 178H863.531V131.078H871.685V164.529L892.277 131.078ZM892.535 119.122C892.535 121.829 891.59 124.021 889.699 125.696C887.809 127.372 885.284 128.21 882.126 128.21C878.968 128.21 876.443 127.372 874.553 125.696C872.662 124.021 871.717 121.829 871.717 119.122H877.582C877.582 120.54 877.979 121.646 878.774 122.441C879.591 123.215 880.708 123.602 882.126 123.602C883.544 123.602 884.65 123.215 885.445 122.441C886.24 121.646 886.638 120.54 886.638 119.122H892.535ZM945.999 162.725C945.526 167.73 943.679 171.641 940.456 174.455C937.233 177.248 932.947 178.645 927.598 178.645C923.859 178.645 920.562 177.764 917.704 176.002C914.868 174.219 912.677 171.694 911.13 168.429C909.583 165.163 908.777 161.371 908.713 157.053V152.67C908.713 148.244 909.497 144.345 911.065 140.972C912.634 137.599 914.879 134.999 917.801 133.173C920.744 131.347 924.139 130.434 927.984 130.434C933.162 130.434 937.33 131.841 940.488 134.655C943.646 137.47 945.483 141.444 945.999 146.579H937.878C937.491 143.206 936.503 140.778 934.913 139.296C933.345 137.792 931.035 137.04 927.984 137.04C924.439 137.04 921.711 138.34 919.799 140.939C917.908 143.518 916.941 147.31 916.898 152.315V156.473C916.898 161.543 917.801 165.41 919.605 168.074C921.432 170.738 924.096 172.07 927.598 172.07C930.799 172.07 933.205 171.351 934.816 169.911C936.428 168.472 937.448 166.076 937.878 162.725H945.999ZM967.204 157.891H961.661V178H953.54V131.078H961.661V150.801H966.141L979.934 131.078H989.924L973.811 153.54L991.342 178H981.545L967.204 157.891ZM1032.27 155.764C1032.27 160.361 1031.47 164.4 1029.88 167.881C1028.29 171.34 1026.02 174.004 1023.05 175.873C1020.11 177.721 1016.71 178.645 1012.87 178.645C1009.07 178.645 1005.67 177.721 1002.69 175.873C999.721 174.004 997.422 171.351 995.789 167.913C994.178 164.476 993.361 160.512 993.34 156.021V153.379C993.34 148.803 994.146 144.764 995.757 141.262C997.39 137.76 999.678 135.085 1002.62 133.237C1005.59 131.368 1008.98 130.434 1012.8 130.434C1016.63 130.434 1020.01 131.357 1022.96 133.205C1025.92 135.031 1028.21 137.674 1029.82 141.133C1031.43 144.57 1032.25 148.577 1032.27 153.153V155.764ZM1024.12 153.314C1024.12 148.115 1023.13 144.13 1021.15 141.358C1019.2 138.587 1016.41 137.201 1012.8 137.201C1009.28 137.201 1006.52 138.587 1004.52 141.358C1002.55 144.108 1001.54 148.008 1001.49 153.057V155.764C1001.49 160.92 1002.49 164.905 1004.49 167.72C1006.51 170.534 1009.3 171.941 1012.87 171.941C1016.48 171.941 1019.25 170.566 1021.18 167.816C1023.14 165.066 1024.12 161.049 1024.12 155.764V153.314ZM1067.82 157.053H1048.54V171.49H1071.07V178H1040.39V131.078H1070.84V137.652H1048.54V150.607H1067.82V157.053ZM558.217 232.764C558.217 237.361 557.422 241.4 555.832 244.881C554.242 248.34 551.965 251.004 549 252.873C546.057 254.721 542.662 255.645 538.816 255.645C535.014 255.645 531.619 254.721 528.633 252.873C525.668 251.004 523.369 248.351 521.736 244.913C520.125 241.476 519.309 237.512 519.287 233.021V230.379C519.287 225.803 520.093 221.764 521.704 218.262C523.337 214.76 525.625 212.085 528.568 210.237C531.533 208.368 534.928 207.434 538.752 207.434C542.576 207.434 545.96 208.357 548.903 210.205C551.868 212.031 554.156 214.674 555.768 218.133C557.379 221.57 558.195 225.577 558.217 230.153V232.764ZM550.063 230.314C550.063 225.115 549.075 221.13 547.099 218.358C545.144 215.587 542.361 214.201 538.752 214.201C535.229 214.201 532.468 215.587 530.47 218.358C528.493 221.108 527.483 225.008 527.44 230.057V232.764C527.44 237.92 528.439 241.905 530.438 244.72C532.457 247.534 535.25 248.941 538.816 248.941C542.426 248.941 545.197 247.566 547.131 244.816C549.086 242.066 550.063 238.049 550.063 232.764V230.314ZM595.986 214.652H574.362V226.028H583.966C587.403 226.028 590.4 226.619 592.957 227.801C595.514 228.982 597.458 230.658 598.79 232.828C600.122 234.998 600.788 237.512 600.788 240.369C600.788 244.752 599.295 248.275 596.309 250.939C593.344 253.604 589.294 254.957 584.159 255H566.209V208.078H595.986V214.652ZM574.362 232.57V248.49H583.934C586.684 248.49 588.821 247.749 590.347 246.267C591.894 244.763 592.667 242.775 592.667 240.305C592.667 237.941 591.915 236.072 590.411 234.697C588.907 233.322 586.823 232.613 584.159 232.57H574.362ZM616.16 208.078V248.49H630.469V208.078H638.59V248.49H652.802V208.078H660.923V248.748H666.401L665.757 266.279H658.603V255H607.975V208.078H616.16ZM701.077 234.053H681.806V248.49H704.332V255H673.652V208.078H704.106V214.652H681.806V227.607H701.077V234.053ZM746.774 239.725C746.302 244.73 744.454 248.641 741.231 251.455C738.009 254.248 733.723 255.645 728.373 255.645C724.635 255.645 721.337 254.764 718.479 253.002C715.644 251.219 713.452 248.694 711.905 245.429C710.358 242.163 709.553 238.371 709.488 234.053V229.67C709.488 225.244 710.272 221.345 711.841 217.972C713.409 214.599 715.654 211.999 718.576 210.173C721.52 208.347 724.914 207.434 728.76 207.434C733.938 207.434 738.105 208.841 741.264 211.655C744.422 214.47 746.259 218.444 746.774 223.579H738.653C738.267 220.206 737.278 217.778 735.688 216.296C734.12 214.792 731.811 214.04 728.76 214.04C725.215 214.04 722.486 215.34 720.574 217.939C718.684 220.518 717.717 224.31 717.674 229.315V233.473C717.674 238.543 718.576 242.41 720.381 245.074C722.207 247.738 724.871 249.07 728.373 249.07C731.574 249.07 733.98 248.351 735.592 246.911C737.203 245.472 738.224 243.076 738.653 239.725H746.774ZM787.025 214.652H772.395V255H764.306V214.652H749.804V208.078H787.025V214.652ZM793.213 255V208.078H809.294C814.601 208.078 818.64 209.142 821.411 211.269C824.183 213.396 825.568 216.564 825.568 220.775C825.568 222.924 824.988 224.857 823.828 226.576C822.668 228.295 820.971 229.627 818.736 230.572C821.271 231.26 823.227 232.56 824.602 234.472C825.998 236.362 826.696 238.64 826.696 241.304C826.696 245.708 825.278 249.092 822.442 251.455C819.628 253.818 815.589 255 810.325 255H793.213ZM801.366 233.827V248.49H810.422C812.979 248.49 814.977 247.856 816.416 246.589C817.855 245.321 818.575 243.56 818.575 241.304C818.575 236.427 816.083 233.935 811.099 233.827H801.366ZM801.366 227.833H809.358C811.894 227.833 813.87 227.264 815.288 226.125C816.728 224.965 817.447 223.332 817.447 221.227C817.447 218.906 816.781 217.23 815.449 216.199C814.139 215.168 812.087 214.652 809.294 214.652H801.366V227.833ZM872.297 232.764C872.297 237.361 871.502 241.4 869.912 244.881C868.322 248.34 866.045 251.004 863.08 252.873C860.137 254.721 856.742 255.645 852.896 255.645C849.094 255.645 845.699 254.721 842.713 252.873C839.748 251.004 837.449 248.351 835.816 244.913C834.205 241.476 833.389 237.512 833.367 233.021V230.379C833.367 225.803 834.173 221.764 835.784 218.262C837.417 214.76 839.705 212.085 842.648 210.237C845.613 208.368 849.008 207.434 852.832 207.434C856.656 207.434 860.04 208.357 862.983 210.205C865.948 212.031 868.236 214.674 869.848 218.133C871.459 221.57 872.275 225.577 872.297 230.153V232.764ZM864.144 230.314C864.144 225.115 863.155 221.13 861.179 218.358C859.224 215.587 856.441 214.201 852.832 214.201C849.309 214.201 846.548 215.587 844.55 218.358C842.573 221.108 841.563 225.008 841.521 230.057V232.764C841.521 237.92 842.52 241.905 844.518 244.72C846.537 247.534 849.33 248.941 852.896 248.941C856.506 248.941 859.277 247.566 861.211 244.816C863.166 242.066 864.144 238.049 864.144 232.764V230.314ZM923.118 244.075H904.942L901.14 255H892.664L910.389 208.078H917.704L935.461 255H926.953L923.118 244.075ZM907.23 237.501H920.83L914.03 218.036L907.23 237.501ZM940.811 255V208.078H956.892C962.198 208.078 966.237 209.142 969.009 211.269C971.78 213.396 973.166 216.564 973.166 220.775C973.166 222.924 972.586 224.857 971.426 226.576C970.266 228.295 968.568 229.627 966.334 230.572C968.869 231.26 970.824 232.56 972.199 234.472C973.596 236.362 974.294 238.64 974.294 241.304C974.294 245.708 972.876 249.092 970.04 251.455C967.226 253.818 963.187 255 957.923 255H940.811ZM948.964 233.827V248.49H958.02C960.576 248.49 962.574 247.856 964.014 246.589C965.453 245.321 966.173 243.56 966.173 241.304C966.173 236.427 963.681 233.935 958.696 233.827H948.964ZM948.964 227.833H956.956C959.491 227.833 961.468 227.264 962.886 226.125C964.325 224.965 965.045 223.332 965.045 221.227C965.045 218.906 964.379 217.23 963.047 216.199C961.736 215.168 959.685 214.652 956.892 214.652H948.964V227.833ZM1015.45 214.652H1000.82V255H992.728V214.652H978.226V208.078H1015.45V214.652ZM1058.18 232.764C1058.18 237.361 1057.38 241.4 1055.79 244.881C1054.21 248.34 1051.93 251.004 1048.96 252.873C1046.02 254.721 1042.62 255.645 1038.78 255.645C1034.98 255.645 1031.58 254.721 1028.6 252.873C1025.63 251.004 1023.33 248.351 1021.7 244.913C1020.09 241.476 1019.27 237.512 1019.25 233.021V230.379C1019.25 225.803 1020.06 221.764 1021.67 218.262C1023.3 214.76 1025.59 212.085 1028.53 210.237C1031.5 208.368 1034.89 207.434 1038.71 207.434C1042.54 207.434 1045.92 208.357 1048.87 210.205C1051.83 212.031 1054.12 214.674 1055.73 218.133C1057.34 221.57 1058.16 225.577 1058.18 230.153V232.764ZM1050.03 230.314C1050.03 225.115 1049.04 221.13 1047.06 218.358C1045.11 215.587 1042.32 214.201 1038.71 214.201C1035.19 214.201 1032.43 215.587 1030.43 218.358C1028.46 221.108 1027.45 225.008 1027.4 230.057V232.764C1027.4 237.92 1028.4 241.905 1030.4 244.72C1032.42 247.534 1035.21 248.941 1038.78 248.941C1042.39 248.941 1045.16 247.566 1047.09 244.816C1049.05 242.066 1050.03 238.049 1050.03 232.764V230.314ZM1076.87 208.078L1090.41 244.043L1103.91 208.078H1114.45V255H1106.33V239.531L1107.13 218.842L1093.27 255H1087.44L1073.62 218.874L1074.42 239.531V255H1066.3V208.078H1076.87ZM1161.56 232.764C1161.56 237.361 1160.77 241.4 1159.18 244.881C1157.59 248.34 1155.31 251.004 1152.35 252.873C1149.4 254.721 1146.01 255.645 1142.16 255.645C1138.36 255.645 1134.96 254.721 1131.98 252.873C1129.01 251.004 1126.71 248.351 1125.08 244.913C1123.47 241.476 1122.65 237.512 1122.63 233.021V230.379C1122.63 225.803 1123.44 221.764 1125.05 218.262C1126.68 214.76 1128.97 212.085 1131.91 210.237C1134.88 208.368 1138.27 207.434 1142.1 207.434C1145.92 207.434 1149.31 208.357 1152.25 210.205C1155.21 212.031 1157.5 214.674 1159.11 218.133C1160.72 221.57 1161.54 225.577 1161.56 230.153V232.764ZM1153.41 230.314C1153.41 225.115 1152.42 221.13 1150.44 218.358C1148.49 215.587 1145.71 214.201 1142.1 214.201C1138.57 214.201 1135.81 215.587 1133.82 218.358C1131.84 221.108 1130.83 225.008 1130.79 230.057V232.764C1130.79 237.92 1131.79 241.905 1133.78 244.72C1135.8 247.534 1138.6 248.941 1142.16 248.941C1145.77 248.941 1148.54 247.566 1150.48 244.816C1152.43 242.066 1153.41 238.049 1153.41 232.764V230.314ZM1199.33 214.652H1177.71V226.028H1187.31C1190.75 226.028 1193.75 226.619 1196.3 227.801C1198.86 228.982 1200.8 230.658 1202.14 232.828C1203.47 234.998 1204.13 237.512 1204.13 240.369C1204.13 244.752 1202.64 248.275 1199.65 250.939C1196.69 253.604 1192.64 254.957 1187.5 255H1169.55V208.078H1199.33V214.652ZM1177.71 232.57V248.49H1187.28C1190.03 248.49 1192.17 247.749 1193.69 246.267C1195.24 244.763 1196.01 242.775 1196.01 240.305C1196.01 237.941 1195.26 236.072 1193.76 234.697C1192.25 233.322 1190.17 232.613 1187.5 232.57H1177.71ZM1239.94 208.078H1248.09V255H1239.94V221.581L1219.34 255H1211.19V208.078H1219.34V241.529L1239.94 208.078ZM1295.33 208.078V255H1287.21V214.652H1272.84L1272 232.796C1271.68 238.468 1270.98 242.872 1269.91 246.009C1268.86 249.124 1267.32 251.401 1265.3 252.841C1263.28 254.28 1260.57 255 1257.18 255H1255.12V248.49L1256.41 248.394C1258.27 248.222 1259.71 247.566 1260.72 246.428C1261.75 245.289 1262.53 243.57 1263.04 241.271C1263.58 238.951 1263.96 235.546 1264.17 231.056L1265.07 208.078H1295.33ZM1333.91 208.078H1342.06V255H1333.91V221.581L1313.32 255H1305.16V208.078H1313.32V241.529L1333.91 208.078ZM1387.63 239.725C1387.16 244.73 1385.31 248.641 1382.09 251.455C1378.87 254.248 1374.58 255.645 1369.23 255.645C1365.49 255.645 1362.19 254.764 1359.34 253.002C1356.5 251.219 1354.31 248.694 1352.76 245.429C1351.22 242.163 1350.41 238.371 1350.35 234.053V229.67C1350.35 225.244 1351.13 221.345 1352.7 217.972C1354.27 214.599 1356.51 211.999 1359.43 210.173C1362.38 208.347 1365.77 207.434 1369.62 207.434C1374.79 207.434 1378.96 208.841 1382.12 211.655C1385.28 214.47 1387.12 218.444 1387.63 223.579H1379.51C1379.12 220.206 1378.14 217.778 1376.55 216.296C1374.98 214.792 1372.67 214.04 1369.62 214.04C1366.07 214.04 1363.34 215.34 1361.43 217.939C1359.54 220.518 1358.57 224.31 1358.53 229.315V233.473C1358.53 238.543 1359.43 242.41 1361.24 245.074C1363.06 247.738 1365.73 249.07 1369.23 249.07C1372.43 249.07 1374.84 248.351 1376.45 246.911C1378.06 245.472 1379.08 243.076 1379.51 239.725H1387.63ZM1427.88 214.652H1413.25V255H1405.16V214.652H1390.66V208.078H1427.88V214.652ZM1470.62 232.764C1470.62 237.361 1469.82 241.4 1468.23 244.881C1466.64 248.34 1464.36 251.004 1461.4 252.873C1458.46 254.721 1455.06 255.645 1451.21 255.645C1447.41 255.645 1444.02 254.721 1441.03 252.873C1438.07 251.004 1435.77 248.351 1434.13 244.913C1432.52 241.476 1431.71 237.512 1431.69 233.021V230.379C1431.69 225.803 1432.49 221.764 1434.1 218.262C1435.74 214.76 1438.02 212.085 1440.97 210.237C1443.93 208.368 1447.33 207.434 1451.15 207.434C1454.97 207.434 1458.36 208.357 1461.3 210.205C1464.27 212.031 1466.55 214.674 1468.17 218.133C1469.78 221.57 1470.59 225.577 1470.62 230.153V232.764ZM1462.46 230.314C1462.46 225.115 1461.47 221.13 1459.5 218.358C1457.54 215.587 1454.76 214.201 1451.15 214.201C1447.63 214.201 1444.87 215.587 1442.87 218.358C1440.89 221.108 1439.88 225.008 1439.84 230.057V232.764C1439.84 237.92 1440.84 241.905 1442.84 244.72C1444.86 247.534 1447.65 248.941 1451.21 248.941C1454.82 248.941 1457.6 247.566 1459.53 244.816C1461.48 242.066 1462.46 238.049 1462.46 232.764V230.314ZM1478.74 255V208.078H1494.82C1500.12 208.078 1504.16 209.142 1506.93 211.269C1509.71 213.396 1511.09 216.564 1511.09 220.775C1511.09 222.924 1510.51 224.857 1509.35 226.576C1508.19 228.295 1506.49 229.627 1504.26 230.572C1506.79 231.26 1508.75 232.56 1510.12 234.472C1511.52 236.362 1512.22 238.64 1512.22 241.304C1512.22 245.708 1510.8 249.092 1507.97 251.455C1505.15 253.818 1501.11 255 1495.85 255H1478.74ZM1486.89 233.827V248.49H1495.95C1498.5 248.49 1500.5 247.856 1501.94 246.589C1503.38 245.321 1504.1 243.56 1504.1 241.304C1504.1 236.427 1501.61 233.935 1496.62 233.827H1486.89ZM1486.89 227.833H1494.88C1497.42 227.833 1499.39 227.264 1500.81 226.125C1502.25 224.965 1502.97 223.332 1502.97 221.227C1502.97 218.906 1502.3 217.23 1500.97 216.199C1499.66 215.168 1497.61 214.652 1494.82 214.652H1486.89V227.833Z" fill="#FF9900"/>
<path d="M533.985 393L531.147 385.707H521.808L519.003 393H516L525.207 369.339H527.88L537.054 393H533.985ZM527.616 375.939C527.55 375.763 527.44 375.444 527.286 374.982C527.132 374.52 526.978 374.047 526.824 373.563C526.692 373.057 526.582 372.672 526.494 372.408C526.34 373.09 526.164 373.761 525.966 374.421C525.768 375.059 525.603 375.565 525.471 375.939L522.798 383.067H530.256L527.616 375.939ZM560.869 369.438C563.817 369.438 566.039 369.878 567.535 370.758C569.053 371.616 569.812 373.123 569.812 375.279C569.812 376.665 569.427 377.82 568.657 378.744C567.887 379.646 566.776 380.229 565.324 380.493V380.658C566.314 380.812 567.205 381.098 567.997 381.516C568.811 381.934 569.449 382.528 569.911 383.298C570.373 384.068 570.604 385.069 570.604 386.301C570.604 388.435 569.867 390.085 568.393 391.251C566.941 392.417 564.95 393 562.42 393H554.137V369.438H560.869ZM561.463 379.47C563.487 379.47 564.873 379.151 565.621 378.513C566.369 377.853 566.743 376.885 566.743 375.609C566.743 374.311 566.281 373.387 565.357 372.837C564.455 372.265 563.003 371.979 561.001 371.979H557.107V379.47H561.463ZM557.107 381.945V390.492H561.859C563.949 390.492 565.401 390.085 566.215 389.271C567.029 388.457 567.436 387.39 567.436 386.07C567.436 384.838 567.007 383.848 566.149 383.1C565.313 382.33 563.806 381.945 561.628 381.945H557.107ZM596.918 393H593.948V372.045H586.589V369.438H604.244V372.045H596.918V393ZM641.571 381.186C641.571 383.628 641.153 385.762 640.317 387.588C639.503 389.392 638.293 390.8 636.687 391.812C635.081 392.824 633.09 393.33 630.714 393.33C628.272 393.33 626.237 392.824 624.609 391.812C623.003 390.8 621.804 389.381 621.012 387.555C620.22 385.729 619.824 383.595 619.824 381.153C619.824 378.733 620.22 376.621 621.012 374.817C621.804 373.013 623.003 371.605 624.609 370.593C626.237 369.581 628.283 369.075 630.747 369.075C633.101 369.075 635.081 369.581 636.687 370.593C638.293 371.583 639.503 372.991 640.317 374.817C641.153 376.621 641.571 378.744 641.571 381.186ZM622.959 381.186C622.959 384.156 623.586 386.499 624.84 388.215C626.094 389.909 628.052 390.756 630.714 390.756C633.398 390.756 635.356 389.909 636.588 388.215C637.82 386.499 638.436 384.156 638.436 381.186C638.436 378.216 637.82 375.895 636.588 374.223C635.356 372.529 633.409 371.682 630.747 371.682C628.085 371.682 626.116 372.529 624.84 374.223C623.586 375.895 622.959 378.216 622.959 381.186ZM688.44 393H660.654V369.438H663.624V390.36H673.029V369.438H675.999V390.36H685.437V369.438H688.44V393ZM725.931 393H722.367L711.708 381.054V393H708.738V369.438H711.708V380.856L722.103 369.438H725.469L715.239 380.889L725.931 393ZM762.912 381.186C762.912 383.628 762.494 385.762 761.658 387.588C760.844 389.392 759.634 390.8 758.028 391.812C756.422 392.824 754.431 393.33 752.055 393.33C749.613 393.33 747.578 392.824 745.95 391.812C744.344 390.8 743.145 389.381 742.353 387.555C741.561 385.729 741.165 383.595 741.165 381.153C741.165 378.733 741.561 376.621 742.353 374.817C743.145 373.013 744.344 371.605 745.95 370.593C747.578 369.581 749.624 369.075 752.088 369.075C754.442 369.075 756.422 369.581 758.028 370.593C759.634 371.583 760.844 372.991 761.658 374.817C762.494 376.621 762.912 378.744 762.912 381.186ZM744.3 381.186C744.3 384.156 744.927 386.499 746.181 388.215C747.435 389.909 749.393 390.756 752.055 390.756C754.739 390.756 756.697 389.909 757.929 388.215C759.161 386.499 759.777 384.156 759.777 381.186C759.777 378.216 759.161 375.895 757.929 374.223C756.697 372.529 754.75 371.682 752.088 371.682C749.426 371.682 747.457 372.529 746.181 374.223C744.927 375.895 744.3 378.216 744.3 381.186ZM798.312 393H795.342V372.045H787.884C787.686 373.673 787.466 375.389 787.224 377.193C786.982 378.975 786.74 380.68 786.498 382.308C786.256 383.936 786.014 385.322 785.772 386.466C785.486 387.94 785.134 389.194 784.716 390.228C784.298 391.262 783.737 392.043 783.033 392.571C782.351 393.099 781.449 393.363 780.327 393.363C779.953 393.363 779.568 393.319 779.172 393.231C778.798 393.165 778.468 393.077 778.182 392.967V390.492C778.424 390.602 778.699 390.701 779.007 390.789C779.315 390.855 779.645 390.888 779.997 390.888C780.657 390.888 781.174 390.624 781.548 390.096C781.944 389.546 782.252 388.875 782.472 388.083C782.692 387.269 782.879 386.466 783.033 385.674C783.209 384.838 783.418 383.617 783.66 382.011C783.924 380.383 784.199 378.491 784.485 376.335C784.793 374.179 785.101 371.88 785.409 369.438H798.312V393ZM833.358 393L830.52 385.707H821.181L818.376 393H815.373L824.58 369.339H827.253L836.427 393H833.358ZM826.989 375.939C826.923 375.763 826.813 375.444 826.659 374.982C826.505 374.52 826.351 374.047 826.197 373.563C826.065 373.057 825.955 372.672 825.867 372.408C825.713 373.09 825.537 373.761 825.339 374.421C825.141 375.059 824.976 375.565 824.844 375.939L822.171 383.067H829.629L826.989 375.939Z" fill="#FF9900"/>
</svg>
